<svg width="52" height="52" viewBox="0 0 52 52" fill="none" xmlns="http://www.w3.org/2000/svg">
<circle cx="26" cy="26" r="26" fill="#E6E6E6"/>
<g clip-path="url(#clip0_1186_158)">
<path d="M29.5781 24.2455C29.5785 24.2455 29.5785 24.2455 29.5788 24.2455L29.5899 24.2441L29.5781 24.2455Z" fill="black"/>
<mask id="path-3-outside-1_1186_158" maskUnits="userSpaceOnUse" x="17.3516" y="12.498" width="16" height="29" fill="black">
<rect fill="white" x="17.3516" y="12.498" width="16" height="29"/>
<path d="M32.648 26.878C32.6483 26.577 32.5179 26.2768 32.2683 26.0699L30.3535 24.4812C30.1642 24.3243 29.9272 24.2391 29.6833 24.2391C29.6489 24.2391 29.6133 24.2409 29.5785 24.2448C29.2987 24.2728 29.0415 24.4122 28.8656 24.6312L28.3991 25.2113L28.1384 23.6533L28.138 23.6516C28.073 23.3115 27.8446 23.0252 27.5274 22.8866L26.4397 22.4115C26.6566 22.2689 26.8383 22.052 26.9967 21.7881C27.1339 21.5575 27.2545 21.2928 27.3608 21.0116L27.4621 21.1545L27.4718 20.6765C27.4722 20.6625 27.4736 20.6427 27.4736 20.6169V20.6115L27.4588 18.7433L28.7844 17.87L28.7858 17.8689C28.8548 17.8243 28.894 17.7482 28.894 17.6699C28.894 17.6383 28.8875 17.606 28.8746 17.5758C28.8362 17.4871 28.75 17.4322 28.6563 17.4322C28.6372 17.4322 28.6175 17.4343 28.5974 17.4397L27.0352 17.8297C27.0337 17.8276 27.0319 17.8254 27.0302 17.8232L27.5685 16.2739C27.5775 16.2484 27.5818 16.2222 27.5818 16.196C27.5821 16.1127 27.5376 16.0327 27.4614 15.9892C27.4252 15.968 27.3842 15.9583 27.344 15.9583C27.2758 15.9583 27.2086 15.9881 27.1623 16.0431L26.1222 17.2785C26.0608 17.2745 25.9994 17.2716 25.9377 17.2684L25.6188 15.5417C25.5979 15.429 25.4995 15.3475 25.385 15.3475C25.2708 15.3471 25.1723 15.429 25.1516 15.5417L24.832 17.2706C24.7414 17.2756 24.6506 17.2807 24.5601 17.2875L23.5125 16.0431C23.4662 15.9882 23.3987 15.9584 23.3304 15.9584C23.2906 15.9584 23.2496 15.9684 23.2126 15.99C23.1368 16.0331 23.093 16.1128 23.093 16.1961C23.093 16.2219 23.0973 16.2485 23.1059 16.2737L23.6055 17.7113L22.1963 17.3597C22.1773 17.3547 22.1582 17.3526 22.1388 17.3526C22.0455 17.3526 21.9589 17.4071 21.9209 17.4962C21.9076 17.526 21.9015 17.5587 21.9015 17.5899C21.9015 17.6668 21.9402 17.7404 22.0064 17.7856L22.0056 17.7867C22.0056 17.7867 22.0096 17.7896 22.0107 17.7903C22.0232 17.7993 22.1051 17.8561 22.2279 17.9426C22.4279 18.0834 22.7278 18.2952 22.9774 18.4755C23.102 18.5657 23.214 18.6483 23.2935 18.7087C23.3078 18.7194 23.3139 18.7248 23.3257 18.7338L23.3409 20.6562L23.3412 20.6612L23.3463 20.8329L22.8237 19.5023L22.4833 19.7712L21.1007 14.932H21.6186V13.498H21.4613H18.3663V14.932H18.9258V16.4131L19.7094 17.1967L20.492 21.3453L20.0402 21.7023C19.7798 21.9084 19.6412 22.2155 19.6412 22.5264C19.6412 22.7211 19.6958 22.9186 19.8078 23.0935L20.7085 24.4941L20.6916 24.507C20.4269 24.7106 20.2818 25.0209 20.2818 25.3391C20.2818 25.477 20.3098 25.6167 20.3662 25.7495L21.0902 27.6015L20.2869 28.4304L20.8044 31.3957L20.3386 31.8762L20 36.9086H18.3516V40.9998H18.5089H31.6744V36.9087H29.6733L29.4384 35.3494L30.0705 35.1917L29.4097 31.2463L32.4174 27.5334L32.4167 27.5344C32.5718 27.3412 32.648 27.1082 32.648 26.878ZM27.1447 18.8257L27.1551 20.1756L26.1097 18.6979C26.4566 18.7223 26.8021 18.7642 27.1447 18.8257ZM23.241 18.278C23.0173 18.1154 22.7382 17.9171 22.5224 17.7652L23.9222 18.1146L24.0138 17.9275L23.5401 16.5647L24.4225 17.6126L24.5032 17.6062C24.6591 17.5936 24.8146 17.5839 24.9701 17.5778L25.0962 17.5728L25.3849 16.0103L25.6736 17.5721L25.8 17.5764C25.926 17.5807 26.0532 17.5883 26.1814 17.5973L26.2608 17.6026L27.1346 16.5652L26.676 17.8835L26.7334 17.9518C26.7722 17.9977 26.8081 18.0462 26.8422 18.0961L26.9039 18.187L28.2363 17.8548L27.2247 18.5206C26.6275 18.4115 26.0209 18.3558 25.414 18.3558C24.7963 18.3558 24.179 18.414 23.5713 18.5267C23.5702 18.526 23.5699 18.5256 23.5692 18.525C23.5003 18.4687 23.3828 18.3811 23.241 18.278ZM23.6522 20.1868L23.6414 18.8336C24.0114 18.7654 24.3855 18.7201 24.7612 18.695L23.6522 20.1868ZM25.1674 18.6763C25.2496 18.6745 25.3318 18.6706 25.4141 18.6706C25.5124 18.6706 25.6108 18.6746 25.7093 18.6774L27.139 20.6979C27.019 21.0433 26.8811 21.3669 26.7263 21.6269C26.5604 21.9063 26.3751 22.1081 26.193 22.1979L26.2609 22.3337L23.4543 21.1079L23.4213 21.0243L25.1674 18.6763ZM18.6809 13.813H21.3039V14.6171H18.6809V13.813ZM20.0007 17.043L19.2404 16.2827V14.932H20.7734L22.2164 19.9824L20.771 21.1248L20.0007 17.043ZM31.3598 40.6852H18.6662V37.2233H31.3598V40.6852ZM29.0846 35.1134L29.3547 36.9087H20.3149L20.6449 32.0127L22.382 30.2207L22.1558 30.0016L21.0751 31.1167L20.6248 28.5343L22.8539 26.2341L22.628 26.0154L21.3313 27.3531L20.6582 25.6325L20.6568 25.63C20.6162 25.5356 20.5968 25.4372 20.5965 25.3391C20.5968 25.1161 20.6984 24.8988 20.8833 24.7563L21.1298 24.567L20.0728 22.923C19.9938 22.8001 19.9562 22.663 19.9562 22.5265C19.9562 22.3078 20.0528 22.0937 20.2352 21.9494L22.6859 20.0122L23.2091 21.3443L27.4016 23.1754C27.6231 23.2724 27.7833 23.4721 27.8285 23.7098L29.7118 34.9569L29.0846 35.1134ZM32.1714 27.3377L32.1703 27.3388L29.3404 30.8323L28.4688 25.6269L29.1109 24.8285C29.2341 24.6748 29.4137 24.5779 29.6097 24.5577C29.6341 24.5552 29.6589 24.5541 29.6833 24.5541C29.854 24.5541 30.0202 24.6134 30.1523 24.7233L32.0675 26.312C32.2428 26.4574 32.333 26.6661 32.3333 26.878C32.333 27.0399 32.2802 27.2012 32.1714 27.3377Z"/>
</mask>
<path d="M32.648 26.878C32.6483 26.577 32.5179 26.2768 32.2683 26.0699L30.3535 24.4812C30.1642 24.3243 29.9272 24.2391 29.6833 24.2391C29.6489 24.2391 29.6133 24.2409 29.5785 24.2448C29.2987 24.2728 29.0415 24.4122 28.8656 24.6312L28.3991 25.2113L28.1384 23.6533L28.138 23.6516C28.073 23.3115 27.8446 23.0252 27.5274 22.8866L26.4397 22.4115C26.6566 22.2689 26.8383 22.052 26.9967 21.7881C27.1339 21.5575 27.2545 21.2928 27.3608 21.0116L27.4621 21.1545L27.4718 20.6765C27.4722 20.6625 27.4736 20.6427 27.4736 20.6169V20.6115L27.4588 18.7433L28.7844 17.87L28.7858 17.8689C28.8548 17.8243 28.894 17.7482 28.894 17.6699C28.894 17.6383 28.8875 17.606 28.8746 17.5758C28.8362 17.4871 28.75 17.4322 28.6563 17.4322C28.6372 17.4322 28.6175 17.4343 28.5974 17.4397L27.0352 17.8297C27.0337 17.8276 27.0319 17.8254 27.0302 17.8232L27.5685 16.2739C27.5775 16.2484 27.5818 16.2222 27.5818 16.196C27.5821 16.1127 27.5376 16.0327 27.4614 15.9892C27.4252 15.968 27.3842 15.9583 27.344 15.9583C27.2758 15.9583 27.2086 15.9881 27.1623 16.0431L26.1222 17.2785C26.0608 17.2745 25.9994 17.2716 25.9377 17.2684L25.6188 15.5417C25.5979 15.429 25.4995 15.3475 25.385 15.3475C25.2708 15.3471 25.1723 15.429 25.1516 15.5417L24.832 17.2706C24.7414 17.2756 24.6506 17.2807 24.5601 17.2875L23.5125 16.0431C23.4662 15.9882 23.3987 15.9584 23.3304 15.9584C23.2906 15.9584 23.2496 15.9684 23.2126 15.99C23.1368 16.0331 23.093 16.1128 23.093 16.1961C23.093 16.2219 23.0973 16.2485 23.1059 16.2737L23.6055 17.7113L22.1963 17.3597C22.1773 17.3547 22.1582 17.3526 22.1388 17.3526C22.0455 17.3526 21.9589 17.4071 21.9209 17.4962C21.9076 17.526 21.9015 17.5587 21.9015 17.5899C21.9015 17.6668 21.9402 17.7404 22.0064 17.7856L22.0056 17.7867C22.0056 17.7867 22.0096 17.7896 22.0107 17.7903C22.0232 17.7993 22.1051 17.8561 22.2279 17.9426C22.4279 18.0834 22.7278 18.2952 22.9774 18.4755C23.102 18.5657 23.214 18.6483 23.2935 18.7087C23.3078 18.7194 23.3139 18.7248 23.3257 18.7338L23.3409 20.6562L23.3412 20.6612L23.3463 20.8329L22.8237 19.5023L22.4833 19.7712L21.1007 14.932H21.6186V13.498H21.4613H18.3663V14.932H18.9258V16.4131L19.7094 17.1967L20.492 21.3453L20.0402 21.7023C19.7798 21.9084 19.6412 22.2155 19.6412 22.5264C19.6412 22.7211 19.6958 22.9186 19.8078 23.0935L20.7085 24.4941L20.6916 24.507C20.4269 24.7106 20.2818 25.0209 20.2818 25.3391C20.2818 25.477 20.3098 25.6167 20.3662 25.7495L21.0902 27.6015L20.2869 28.4304L20.8044 31.3957L20.3386 31.8762L20 36.9086H18.3516V40.9998H18.5089H31.6744V36.9087H29.6733L29.4384 35.3494L30.0705 35.1917L29.4097 31.2463L32.4174 27.5334L32.4167 27.5344C32.5718 27.3412 32.648 27.1082 32.648 26.878ZM27.1447 18.8257L27.1551 20.1756L26.1097 18.6979C26.4566 18.7223 26.8021 18.7642 27.1447 18.8257ZM23.241 18.278C23.0173 18.1154 22.7382 17.9171 22.5224 17.7652L23.9222 18.1146L24.0138 17.9275L23.5401 16.5647L24.4225 17.6126L24.5032 17.6062C24.6591 17.5936 24.8146 17.5839 24.9701 17.5778L25.0962 17.5728L25.3849 16.0103L25.6736 17.5721L25.8 17.5764C25.926 17.5807 26.0532 17.5883 26.1814 17.5973L26.2608 17.6026L27.1346 16.5652L26.676 17.8835L26.7334 17.9518C26.7722 17.9977 26.8081 18.0462 26.8422 18.0961L26.9039 18.187L28.2363 17.8548L27.2247 18.5206C26.6275 18.4115 26.0209 18.3558 25.414 18.3558C24.7963 18.3558 24.179 18.414 23.5713 18.5267C23.5702 18.526 23.5699 18.5256 23.5692 18.525C23.5003 18.4687 23.3828 18.3811 23.241 18.278ZM23.6522 20.1868L23.6414 18.8336C24.0114 18.7654 24.3855 18.7201 24.7612 18.695L23.6522 20.1868ZM25.1674 18.6763C25.2496 18.6745 25.3318 18.6706 25.4141 18.6706C25.5124 18.6706 25.6108 18.6746 25.7093 18.6774L27.139 20.6979C27.019 21.0433 26.8811 21.3669 26.7263 21.6269C26.5604 21.9063 26.3751 22.1081 26.193 22.1979L26.2609 22.3337L23.4543 21.1079L23.4213 21.0243L25.1674 18.6763ZM18.6809 13.813H21.3039V14.6171H18.6809V13.813ZM20.0007 17.043L19.2404 16.2827V14.932H20.7734L22.2164 19.9824L20.771 21.1248L20.0007 17.043ZM31.3598 40.6852H18.6662V37.2233H31.3598V40.6852ZM29.0846 35.1134L29.3547 36.9087H20.3149L20.6449 32.0127L22.382 30.2207L22.1558 30.0016L21.0751 31.1167L20.6248 28.5343L22.8539 26.2341L22.628 26.0154L21.3313 27.3531L20.6582 25.6325L20.6568 25.63C20.6162 25.5356 20.5968 25.4372 20.5965 25.3391C20.5968 25.1161 20.6984 24.8988 20.8833 24.7563L21.1298 24.567L20.0728 22.923C19.9938 22.8001 19.9562 22.663 19.9562 22.5265C19.9562 22.3078 20.0528 22.0937 20.2352 21.9494L22.6859 20.0122L23.2091 21.3443L27.4016 23.1754C27.6231 23.2724 27.7833 23.4721 27.8285 23.7098L29.7118 34.9569L29.0846 35.1134ZM32.1714 27.3377L32.1703 27.3388L29.3404 30.8323L28.4688 25.6269L29.1109 24.8285C29.2341 24.6748 29.4137 24.5779 29.6097 24.5577C29.6341 24.5552 29.6589 24.5541 29.6833 24.5541C29.854 24.5541 30.0202 24.6134 30.1523 24.7233L32.0675 26.312C32.2428 26.4574 32.333 26.6661 32.3333 26.878C32.333 27.0399 32.2802 27.2012 32.1714 27.3377Z" fill="black"/>
<path d="M28.8746 17.5758L28.947 17.5417L28.9444 17.5363L28.8721 17.5704L28.7997 17.6046L28.8023 17.61L28.8746 17.5758ZM23.4037 16.1706L23.4753 16.1349L23.4735 16.1312L23.4019 16.167L23.3303 16.2028L23.3322 16.2064L23.4037 16.1706ZM32.648 26.878L32.488 26.8778V26.878H32.648ZM32.2683 26.0699L32.1662 26.1931L32.1662 26.1931L32.2683 26.0699ZM30.3535 24.4812L30.4556 24.3581L30.4556 24.358L30.3535 24.4812ZM29.5785 24.2448L29.5944 24.404L29.5961 24.4038L29.5785 24.2448ZM28.8656 24.6312L28.9903 24.7315L28.9903 24.7314L28.8656 24.6312ZM28.3991 25.2113L28.2413 25.2377L28.3002 25.5895L28.5238 25.3115L28.3991 25.2113ZM28.1384 23.6533L28.2963 23.6269L28.2951 23.621L28.1384 23.6533ZM28.138 23.6516L27.9808 23.6816L27.9813 23.6839L28.138 23.6516ZM27.5274 22.8866L27.5915 22.74L27.5915 22.74L27.5274 22.8866ZM26.4397 22.4115L26.3518 22.2777L26.105 22.4399L26.3756 22.5581L26.4397 22.4115ZM26.9967 21.7881L27.1339 21.8704L27.1342 21.8699L26.9967 21.7881ZM27.3608 21.0116L27.4913 20.9191L27.3175 20.6738L27.2112 20.955L27.3608 21.0116ZM27.4621 21.1545L27.3316 21.247L27.6122 21.6429L27.6221 21.1577L27.4621 21.1545ZM27.4718 20.6765L27.3119 20.6723L27.3118 20.6732L27.4718 20.6765ZM27.4736 20.6115H27.6336L27.6335 20.6103L27.4736 20.6115ZM27.4588 18.7433L27.3708 18.6097L27.2982 18.6576L27.2988 18.7446L27.4588 18.7433ZM28.7844 17.87L28.8726 18.0038L28.8804 17.9979L28.7844 17.87ZM28.7858 17.8689L28.6988 17.7341L28.6898 17.7409L28.7858 17.8689ZM28.8746 17.5758L29.0217 17.5129L29.0214 17.5122L28.8746 17.5758ZM28.5974 17.4397L28.6361 17.595L28.6388 17.5943L28.5974 17.4397ZM27.0352 17.8297L26.9032 17.9202L26.9661 18.0119L27.0739 17.9849L27.0352 17.8297ZM27.0302 17.8232L26.879 17.7707L26.8499 17.8545L26.9056 17.9236L27.0302 17.8232ZM27.5685 16.2739L27.4175 16.2209L27.4174 16.2214L27.5685 16.2739ZM27.5818 16.196L27.4218 16.1953V16.196H27.5818ZM27.4614 15.9892L27.3807 16.1273L27.3821 16.1281L27.4614 15.9892ZM27.1623 16.0431L27.0399 15.94L27.0399 15.94L27.1623 16.0431ZM26.1222 17.2785L26.1118 17.4381L26.1925 17.4434L26.2446 17.3815L26.1222 17.2785ZM25.9377 17.2684L25.7803 17.2975L25.8033 17.4217L25.9294 17.4282L25.9377 17.2684ZM25.6188 15.5417L25.7761 15.5127L25.7761 15.5127L25.6188 15.5417ZM25.385 15.3475L25.3845 15.5075H25.385V15.3475ZM25.1516 15.5417L25.3089 15.5708L25.3089 15.5707L25.1516 15.5417ZM24.832 17.2706L24.8408 17.4304L24.9664 17.4234L24.9893 17.2997L24.832 17.2706ZM24.5601 17.2875L24.4377 17.3905L24.4905 17.4532L24.5722 17.447L24.5601 17.2875ZM23.5125 16.0431L23.6349 15.9401L23.6349 15.94L23.5125 16.0431ZM23.2126 15.99L23.2917 16.129L23.293 16.1283L23.2126 15.99ZM23.1059 16.2737L22.9545 16.3254L22.9548 16.3262L23.1059 16.2737ZM23.6055 17.7113L23.5667 17.8665L23.8537 17.9381L23.7566 17.6587L23.6055 17.7113ZM22.1963 17.3597L22.1554 17.5144L22.1576 17.515L22.1963 17.3597ZM21.9209 17.4962L22.0671 17.5613L22.068 17.5591L21.9209 17.4962ZM22.0064 17.7856L22.1395 17.8744L22.2272 17.7428L22.0967 17.6536L22.0064 17.7856ZM22.0056 17.7867L21.8725 17.698L21.7879 17.8248L21.9106 17.9154L22.0056 17.7867ZM22.0107 17.7903L22.1035 17.6599L22.0994 17.6572L22.0107 17.7903ZM22.2279 17.9426L22.1357 18.0734L22.1358 18.0734L22.2279 17.9426ZM22.9774 18.4755L23.0712 18.3459L23.0711 18.3458L22.9774 18.4755ZM23.2935 18.7087L23.1967 18.836L23.1974 18.8366L23.2935 18.7087ZM23.3257 18.7338L23.4857 18.7325L23.4851 18.6542L23.4229 18.6066L23.3257 18.7338ZM23.3409 20.6562L23.1805 20.6575L23.1813 20.6679L23.3409 20.6562ZM23.3412 20.6612L23.5013 20.6565L23.5008 20.6495L23.3412 20.6612ZM23.3463 20.8329L23.1973 20.8914L23.5062 20.8282L23.3463 20.8329ZM22.8237 19.5023L22.9727 19.4438L22.8938 19.243L22.7246 19.3767L22.8237 19.5023ZM22.4833 19.7712L22.3294 19.8152L22.395 20.0449L22.5825 19.8968L22.4833 19.7712ZM21.1007 14.932V14.772H20.8886L20.9468 14.976L21.1007 14.932ZM21.6186 14.932V15.092H21.7786V14.932H21.6186ZM21.6186 13.498H21.7786V13.338H21.6186V13.498ZM18.3663 13.498V13.338H18.2063V13.498H18.3663ZM18.3663 14.932H18.2063V15.092H18.3663V14.932ZM18.9258 14.932H19.0858V14.772H18.9258V14.932ZM18.9258 16.4131H18.7658V16.4794L18.8127 16.5262L18.9258 16.4131ZM19.7094 17.1967L19.8667 17.167L19.8575 17.1185L19.8226 17.0835L19.7094 17.1967ZM20.492 21.3453L20.5911 21.4708L20.6671 21.4108L20.6492 21.3156L20.492 21.3453ZM20.0402 21.7023L19.941 21.5767L19.9408 21.5768L20.0402 21.7023ZM19.8078 23.0935L19.673 23.1798L19.6732 23.1801L19.8078 23.0935ZM20.7085 24.4941L20.8056 24.6213L20.9229 24.5317L20.843 24.4075L20.7085 24.4941ZM20.6916 24.507L20.5945 24.3798L20.594 24.3802L20.6916 24.507ZM20.3662 25.7495L20.5153 25.6912L20.5135 25.687L20.3662 25.7495ZM21.0902 27.6015L21.2051 27.7129L21.2767 27.639L21.2392 27.5433L21.0902 27.6015ZM20.2869 28.4304L20.172 28.3191L20.1152 28.3776L20.1293 28.4579L20.2869 28.4304ZM20.8044 31.3957L20.9193 31.5071L20.976 31.4485L20.962 31.3682L20.8044 31.3957ZM20.3386 31.8762L20.2237 31.7648L20.1829 31.8069L20.179 31.8655L20.3386 31.8762ZM20 36.9086V37.0686H20.1495L20.1596 36.9194L20 36.9086ZM18.3516 36.9086V36.7486H18.1916V36.9086H18.3516ZM18.3516 40.9998H18.1916V41.1598H18.3516V40.9998ZM31.6744 40.9998V41.1598H31.8344V40.9998H31.6744ZM31.6744 36.9087H31.8344V36.7487H31.6744V36.9087ZM29.6733 36.9087L29.5151 36.9325L29.5356 37.0687H29.6733V36.9087ZM29.4384 35.3494L29.3997 35.1941L29.2585 35.2293L29.2802 35.3732L29.4384 35.3494ZM30.0705 35.1917L30.1093 35.3469L30.2528 35.3111L30.2283 35.1653L30.0705 35.1917ZM29.4097 31.2463L29.2854 31.1456L29.24 31.2017L29.2519 31.2728L29.4097 31.2463ZM32.4174 27.5334L32.5506 27.622L32.2931 27.4326L32.4174 27.5334ZM32.4167 27.5344L32.2835 27.4458L32.5414 27.6346L32.4167 27.5344ZM27.1447 18.8257L27.3047 18.8245L27.3036 18.6917L27.1729 18.6682L27.1447 18.8257ZM27.1551 20.1756L27.0245 20.268L27.319 20.6844L27.3151 20.1744L27.1551 20.1756ZM26.1097 18.6979L26.1209 18.5383L25.784 18.5146L25.9791 18.7903L26.1097 18.6979ZM23.241 18.278L23.1469 18.4074L23.147 18.4075L23.241 18.278ZM22.5224 17.7652L22.5611 17.61L22.4303 17.8961L22.5224 17.7652ZM23.9222 18.1146L23.8835 18.2699L24.0091 18.3012L24.066 18.1849L23.9222 18.1146ZM24.0138 17.9275L24.1575 17.9979L24.1868 17.938L24.1649 17.875L24.0138 17.9275ZM23.5401 16.5647L23.6625 16.4616L23.389 16.6172L23.5401 16.5647ZM24.4225 17.6126L24.3001 17.7157L24.3531 17.7787L24.4353 17.7721L24.4225 17.6126ZM24.5032 17.6062L24.516 17.7656L24.5161 17.7656L24.5032 17.6062ZM24.9701 17.5778L24.9763 17.7377L24.9765 17.7377L24.9701 17.5778ZM25.0962 17.5728L25.1026 17.7327L25.2303 17.7276L25.2535 17.6019L25.0962 17.5728ZM25.3849 16.0103L25.5423 15.9812L25.2276 15.9812L25.3849 16.0103ZM25.6736 17.5721L25.5163 17.6011L25.5396 17.7275L25.6681 17.732L25.6736 17.5721ZM25.8 17.5764L25.7945 17.7363L25.7946 17.7363L25.8 17.5764ZM26.1814 17.5973L26.1703 17.7569L26.1706 17.7569L26.1814 17.5973ZM26.2608 17.6026L26.25 17.7623L26.3309 17.7678L26.3832 17.7057L26.2608 17.6026ZM27.1346 16.5652L27.2857 16.6177L27.0122 16.4621L27.1346 16.5652ZM26.676 17.8835L26.5249 17.831L26.4949 17.9169L26.5536 17.9866L26.676 17.8835ZM26.7334 17.9518L26.611 18.0548L26.6111 18.0549L26.7334 17.9518ZM26.8422 18.0961L26.9745 18.0062L26.9744 18.0059L26.8422 18.0961ZM26.9039 18.187L26.7716 18.2769L26.8343 18.3692L26.9426 18.3422L26.9039 18.187ZM28.2363 17.8548L28.3243 17.9885L28.1976 17.6996L28.2363 17.8548ZM27.2247 18.5206L27.196 18.678L27.2591 18.6895L27.3127 18.6542L27.2247 18.5206ZM23.5713 18.5267L23.4826 18.6598L23.5366 18.6959L23.6005 18.684L23.5713 18.5267ZM23.5692 18.525L23.6823 18.4118L23.6766 18.4061L23.6704 18.401L23.5692 18.525ZM23.6522 20.1868L23.4922 20.1881L23.496 20.6651L23.7806 20.2822L23.6522 20.1868ZM23.6414 18.8336L23.6124 18.6762L23.4804 18.7005L23.4814 18.8348L23.6414 18.8336ZM24.7612 18.695L24.8896 18.7904L25.0964 18.5122L24.7505 18.5353L24.7612 18.695ZM25.1674 18.6763L25.1639 18.5164L25.0857 18.5181L25.039 18.5808L25.1674 18.6763ZM25.7093 18.6774L25.8399 18.585L25.7937 18.5198L25.7139 18.5175L25.7093 18.6774ZM27.139 20.6979L27.2901 20.7504L27.3171 20.6726L27.2696 20.6054L27.139 20.6979ZM26.7263 21.6269L26.5888 21.545L26.5887 21.5452L26.7263 21.6269ZM26.193 22.1979L26.1222 22.0544L25.9779 22.1256L26.0499 22.2695L26.193 22.1979ZM26.2609 22.3337L26.1968 22.4803L26.6014 22.657L26.404 22.2621L26.2609 22.3337ZM23.4543 21.1079L23.3055 21.1667L23.3298 21.2281L23.3903 21.2546L23.4543 21.1079ZM23.4213 21.0243L23.2929 20.9288L23.2397 21.0002L23.2725 21.0831L23.4213 21.0243ZM18.6809 13.813V13.653H18.5209V13.813H18.6809ZM21.3039 13.813H21.4639V13.653H21.3039V13.813ZM21.3039 14.6171V14.7771H21.4639V14.6171H21.3039ZM18.6809 14.6171H18.5209V14.7771H18.6809V14.6171ZM20.0007 17.043L20.1579 17.0133L20.1487 16.9648L20.1138 16.9299L20.0007 17.043ZM19.2404 16.2827H19.0804V16.349L19.1273 16.3959L19.2404 16.2827ZM19.2404 14.932V14.772H19.0804V14.932H19.2404ZM20.7734 14.932L20.9273 14.8881L20.8941 14.772H20.7734V14.932ZM22.2164 19.9824L22.3156 20.1079L22.3997 20.0415L22.3702 19.9384L22.2164 19.9824ZM20.771 21.1248L20.6137 21.1544L20.6628 21.4142L20.8702 21.2503L20.771 21.1248ZM31.3598 40.6852V40.8452H31.5198V40.6852H31.3598ZM18.6662 40.6852H18.5062V40.8452H18.6662V40.6852ZM18.6662 37.2233V37.0633H18.5062V37.2233H18.6662ZM31.3598 37.2233H31.5198V37.0633H31.3598V37.2233ZM29.0846 35.1134L29.0459 34.9582L28.9048 34.9934L28.9264 35.1372L29.0846 35.1134ZM29.3547 36.9087V37.0687H29.5406L29.513 36.8849L29.3547 36.9087ZM20.3149 36.9087L20.1552 36.8979L20.1437 37.0687H20.3149V36.9087ZM20.6449 32.0127L20.53 31.9014L20.4892 31.9435L20.4853 32.002L20.6449 32.0127ZM22.382 30.2207L22.4969 30.332L22.6083 30.2171L22.4933 30.1057L22.382 30.2207ZM22.1558 30.0016L22.2671 29.8867L22.1522 29.7754L22.0409 29.8903L22.1558 30.0016ZM21.0751 31.1167L20.9175 31.1442L20.9715 31.4536L21.19 31.2281L21.0751 31.1167ZM20.6248 28.5343L20.5099 28.4229L20.4532 28.4814L20.4672 28.5617L20.6248 28.5343ZM22.8539 26.2341L22.9688 26.3454L23.0802 26.2305L22.9652 26.1191L22.8539 26.2341ZM22.628 26.0154L22.7394 25.9004L22.6245 25.7892L22.5132 25.904L22.628 26.0154ZM21.3313 27.3531L21.1823 27.4114L21.2729 27.6432L21.4461 27.4645L21.3313 27.3531ZM20.6582 25.6325L20.8072 25.5743L20.8029 25.5633L20.7971 25.5531L20.6582 25.6325ZM20.6568 25.63L20.5097 25.6931L20.5133 25.7015L20.5179 25.7094L20.6568 25.63ZM20.5965 25.3391L20.4365 25.3389L20.4365 25.3397L20.5965 25.3391ZM20.8833 24.7563L20.7859 24.6294L20.7857 24.6296L20.8833 24.7563ZM21.1298 24.567L21.2272 24.6939L21.3439 24.6043L21.2643 24.4805L21.1298 24.567ZM20.0728 22.923L20.2074 22.8364L20.2074 22.8364L20.0728 22.923ZM20.2352 21.9494L20.136 21.8238L20.136 21.8239L20.2352 21.9494ZM22.6859 20.0122L22.8348 19.9537L22.7559 19.7529L22.5867 19.8867L22.6859 20.0122ZM23.2091 21.3443L23.0602 21.4028L23.0844 21.4644L23.1451 21.4909L23.2091 21.3443ZM27.4016 23.1754L27.4657 23.0289L27.4656 23.0288L27.4016 23.1754ZM27.8285 23.7098L27.9864 23.6834L27.9857 23.6799L27.8285 23.7098ZM29.7118 34.9569L29.7505 35.1121L29.894 35.0763L29.8696 34.9305L29.7118 34.9569ZM32.1714 27.3377L32.2845 27.4509L32.2909 27.4445L32.2965 27.4374L32.1714 27.3377ZM32.1703 27.3388L32.0572 27.2256L32.0513 27.2315L32.046 27.238L32.1703 27.3388ZM29.3404 30.8323L29.1826 30.8587L29.2412 31.2089L29.4647 30.933L29.3404 30.8323ZM28.4688 25.6269L28.3441 25.5266L28.2992 25.5825L28.311 25.6533L28.4688 25.6269ZM29.1109 24.8285L29.2356 24.9288L29.2358 24.9286L29.1109 24.8285ZM29.6097 24.5577L29.5935 24.3985L29.5933 24.3986L29.6097 24.5577ZM30.1523 24.7233L30.05 24.8463L30.0502 24.8464L30.1523 24.7233ZM32.0675 26.312L32.1697 26.1889L32.1697 26.1889L32.0675 26.312ZM32.3333 26.878L32.4933 26.8784L32.4933 26.8777L32.3333 26.878ZM32.648 26.878L32.808 26.8782C32.8084 26.5313 32.6581 26.1852 32.3704 25.9468L32.2683 26.0699L32.1662 26.1931C32.3777 26.3685 32.4883 26.6228 32.488 26.8778L32.648 26.878ZM32.2683 26.0699L32.3705 25.9468L30.4556 24.3581L30.3535 24.4812L30.2513 24.6043L32.1662 26.1931L32.2683 26.0699ZM30.3535 24.4812L30.4556 24.358C30.2376 24.1773 29.9645 24.0791 29.6833 24.0791V24.2391V24.3991C29.8899 24.3991 30.0908 24.4712 30.2513 24.6044L30.3535 24.4812ZM29.6833 24.2391V24.0791C29.6434 24.0791 29.6019 24.0812 29.5608 24.0858L29.5785 24.2448L29.5961 24.4038C29.6247 24.4007 29.6544 24.3991 29.6833 24.3991V24.2391ZM29.5785 24.2448L29.5625 24.0856C29.2402 24.1179 28.9437 24.2784 28.7408 24.531L28.8656 24.6312L28.9903 24.7314C29.1393 24.5459 29.3573 24.4278 29.5944 24.404L29.5785 24.2448ZM28.8656 24.6312L28.7409 24.5309L28.2744 25.111L28.3991 25.2113L28.5238 25.3115L28.9903 24.7315L28.8656 24.6312ZM28.3991 25.2113L28.5569 25.1849L28.2962 23.6269L28.1384 23.6533L27.9806 23.6797L28.2413 25.2377L28.3991 25.2113ZM28.1384 23.6533L28.2951 23.621L28.2947 23.6193L28.138 23.6516L27.9813 23.6839L27.9817 23.6857L28.1384 23.6533ZM28.138 23.6516L28.2951 23.6215C28.2202 23.2297 27.9571 22.8998 27.5915 22.74L27.5274 22.8866L27.4634 23.0332C27.7321 23.1507 27.9257 23.3933 27.9808 23.6816L28.138 23.6516ZM27.5274 22.8866L27.5915 22.74L26.5037 22.2648L26.4397 22.4115L26.3756 22.5581L27.4634 23.0332L27.5274 22.8866ZM26.4397 22.4115L26.5275 22.5452C26.7718 22.3847 26.9685 22.1459 27.1339 21.8704L26.9967 21.7881L26.8595 21.7057C26.7081 21.9581 26.5414 22.1532 26.3518 22.2777L26.4397 22.4115ZM26.9967 21.7881L27.1342 21.8699C27.2775 21.629 27.4019 21.3552 27.5105 21.0682L27.3608 21.0116L27.2112 20.955C27.1071 21.2303 26.9902 21.486 26.8592 21.7062L26.9967 21.7881ZM27.3608 21.0116L27.2303 21.1041L27.3316 21.247L27.4621 21.1545L27.5926 21.062L27.4913 20.9191L27.3608 21.0116ZM27.4621 21.1545L27.6221 21.1577L27.6318 20.6797L27.4718 20.6765L27.3118 20.6732L27.3021 21.1513L27.4621 21.1545ZM27.4718 20.6765L27.6317 20.6806C27.6318 20.6768 27.6336 20.6439 27.6336 20.6169H27.4736H27.3136C27.3136 20.6269 27.3133 20.636 27.3129 20.6448C27.3127 20.6517 27.3121 20.6641 27.3119 20.6723L27.4718 20.6765ZM27.4736 20.6169H27.6336V20.6115H27.4736H27.3136V20.6169H27.4736ZM27.4736 20.6115L27.6335 20.6103L27.6188 18.7421L27.4588 18.7433L27.2988 18.7446L27.3136 20.6128L27.4736 20.6115ZM27.4588 18.7433L27.5469 18.8769L28.8724 18.0036L28.7844 17.87L28.6964 17.7363L27.3708 18.6097L27.4588 18.7433ZM28.7844 17.87L28.8804 17.9979L28.8819 17.9968L28.7858 17.8689L28.6898 17.7409L28.6884 17.742L28.7844 17.87ZM28.7858 17.8689L28.8727 18.0033C28.9887 17.9283 29.054 17.8008 29.054 17.6699H28.894H28.734C28.734 17.6956 28.721 17.7203 28.699 17.7345L28.7858 17.8689ZM28.894 17.6699H29.054C29.054 17.6167 29.0431 17.563 29.0217 17.5129L28.8746 17.5758L28.7275 17.6387C28.7319 17.6489 28.734 17.6599 28.734 17.6699H28.894ZM28.8746 17.5758L29.0214 17.5122C28.9573 17.3642 28.8129 17.2722 28.6563 17.2722V17.4322V17.5922C28.6871 17.5922 28.715 17.61 28.7278 17.6394L28.8746 17.5758ZM28.6563 17.4322V17.2722C28.6253 17.2722 28.5914 17.2757 28.5559 17.2852L28.5974 17.4397L28.6388 17.5943C28.6435 17.593 28.6492 17.5922 28.6563 17.5922V17.4322ZM28.5974 17.4397L28.5586 17.2845L26.9964 17.6745L27.0352 17.8297L27.0739 17.9849L28.6361 17.5949L28.5974 17.4397ZM27.0352 17.8297L27.1672 17.7392C27.1635 17.7339 27.1602 17.7296 27.1583 17.7273C27.1574 17.726 27.1565 17.7249 27.1559 17.7243C27.1551 17.7233 27.1551 17.7233 27.1548 17.7228L27.0302 17.8232L26.9056 17.9236C26.9061 17.9242 26.907 17.9253 26.9071 17.9254C26.9074 17.9258 26.9074 17.9258 26.9072 17.9257C26.9071 17.9255 26.9054 17.9234 26.9032 17.9202L27.0352 17.8297ZM27.0302 17.8232L27.1813 17.8757L27.7196 16.3265L27.5685 16.2739L27.4174 16.2214L26.879 17.7707L27.0302 17.8232ZM27.5685 16.2739L27.7194 16.327C27.7345 16.2841 27.7418 16.2399 27.7418 16.196H27.5818H27.4218C27.4218 16.2046 27.4204 16.2128 27.4175 16.2209L27.5685 16.2739ZM27.5818 16.196L27.7417 16.1967C27.7424 16.0562 27.6674 15.9226 27.5408 15.8503L27.4614 15.9892L27.3821 16.1281C27.4077 16.1427 27.4219 16.1692 27.4218 16.1953L27.5818 16.196ZM27.4614 15.9892L27.5422 15.851C27.4789 15.8141 27.4095 15.7983 27.344 15.7983V15.9583V16.1183C27.359 16.1183 27.3715 16.1219 27.3807 16.1273L27.4614 15.9892ZM27.344 15.9583V15.7983C27.2296 15.7983 27.1172 15.8482 27.0399 15.94L27.1623 16.0431L27.2846 16.1462C27.3 16.128 27.322 16.1183 27.344 16.1183V15.9583ZM27.1623 16.0431L27.0399 15.94L25.9998 17.1754L26.1222 17.2785L26.2446 17.3815L27.2847 16.1461L27.1623 16.0431ZM26.1222 17.2785L26.1326 17.1188C26.0698 17.1147 26.0065 17.1118 25.946 17.1086L25.9377 17.2684L25.9294 17.4282C25.9923 17.4315 26.0518 17.4342 26.1118 17.4381L26.1222 17.2785ZM25.9377 17.2684L26.095 17.2394L25.7761 15.5127L25.6188 15.5417L25.4614 15.5708L25.7803 17.2975L25.9377 17.2684ZM25.6188 15.5417L25.7761 15.5127C25.7412 15.3238 25.5764 15.1875 25.385 15.1875V15.3475V15.5075C25.4227 15.5075 25.4547 15.5342 25.4614 15.5708L25.6188 15.5417ZM25.385 15.3475L25.3855 15.1875C25.1935 15.1868 25.0289 15.3243 24.9942 15.5128L25.1516 15.5417L25.3089 15.5707C25.3158 15.5337 25.3481 15.5073 25.3845 15.5075L25.385 15.3475ZM25.1516 15.5417L24.9942 15.5127L24.6746 17.2415L24.832 17.2706L24.9893 17.2997L25.3089 15.5708L25.1516 15.5417ZM24.832 17.2706L24.8231 17.1108C24.7329 17.1159 24.6404 17.121 24.548 17.1279L24.5601 17.2875L24.5722 17.447C24.6607 17.4403 24.75 17.4354 24.8408 17.4304L24.832 17.2706ZM24.5601 17.2875L24.6825 17.1844L23.6349 15.9401L23.5125 16.0431L23.3901 16.1462L24.4377 17.3905L24.5601 17.2875ZM23.5125 16.0431L23.6349 15.94C23.5574 15.8481 23.4447 15.7984 23.3304 15.7984V15.9584V16.1184C23.3527 16.1184 23.375 16.1282 23.3902 16.1462L23.5125 16.0431ZM23.3304 15.9584V15.7984C23.2638 15.7984 23.1949 15.8152 23.1321 15.8517L23.2126 15.99L23.293 16.1283C23.3044 16.1217 23.3173 16.1184 23.3304 16.1184V15.9584ZM23.2126 15.99L23.1334 15.8509C23.0062 15.9234 22.933 16.057 22.933 16.1961H23.093H23.253C23.253 16.1685 23.2675 16.1428 23.2917 16.129L23.2126 15.99ZM23.093 16.1961H22.933C22.933 16.2396 22.9403 16.2836 22.9545 16.3254L23.1059 16.2737L23.2574 16.222C23.2544 16.2134 23.253 16.2043 23.253 16.1961H23.093ZM23.1059 16.2737L22.9548 16.3262L23.4543 17.7638L23.6055 17.7113L23.7566 17.6587L23.2571 16.2212L23.1059 16.2737ZM23.6055 17.7113L23.6442 17.556L22.235 17.2045L22.1963 17.3597L22.1576 17.515L23.5667 17.8665L23.6055 17.7113ZM22.1963 17.3597L22.2372 17.205C22.2031 17.196 22.1701 17.1926 22.1388 17.1926V17.3526V17.5126C22.1464 17.5126 22.1515 17.5134 22.1554 17.5144L22.1963 17.3597ZM22.1388 17.3526V17.1926C21.9831 17.1926 21.8377 17.2838 21.7737 17.4333L21.9209 17.4962L22.068 17.5591C22.0802 17.5304 22.1079 17.5126 22.1388 17.5126V17.3526ZM21.9209 17.4962L21.7747 17.4311C21.7514 17.4834 21.7415 17.5386 21.7415 17.5899H21.9015H22.0615C22.0615 17.5788 22.0638 17.5685 22.067 17.5613L21.9209 17.4962ZM21.9015 17.5899H21.7415C21.7415 17.7207 21.8072 17.8432 21.916 17.9177L22.0064 17.7856L22.0967 17.6536C22.0733 17.6375 22.0615 17.6129 22.0615 17.5899H21.9015ZM22.0064 17.7856L21.8732 17.6969L21.8725 17.698L22.0056 17.7867L22.1388 17.8754L22.1395 17.8744L22.0064 17.7856ZM22.0056 17.7867C21.9106 17.9154 21.9106 17.9154 21.9106 17.9154C21.9106 17.9154 21.9106 17.9154 21.9106 17.9154C21.9106 17.9154 21.9106 17.9154 21.9106 17.9154C21.9106 17.9154 21.9106 17.9154 21.9106 17.9154C21.9106 17.9154 21.9106 17.9154 21.9106 17.9154C21.9106 17.9154 21.9106 17.9155 21.9107 17.9155C21.9107 17.9155 21.9108 17.9156 21.9109 17.9156C21.911 17.9157 21.9112 17.9159 21.9115 17.9161C21.9119 17.9164 21.9126 17.9169 21.9134 17.9175C21.9141 17.918 21.9151 17.9187 21.9161 17.9195C21.9165 17.9197 21.919 17.9216 21.9219 17.9235L22.0107 17.7903L22.0994 17.6572C22.1024 17.6592 22.1043 17.6607 22.1021 17.659C22.1017 17.6588 22.1013 17.6585 22.1011 17.6583C22.1009 17.6582 22.1008 17.6581 22.1007 17.658C22.1007 17.658 22.1007 17.658 22.1007 17.658C22.1007 17.658 22.1007 17.658 22.1007 17.658C22.1007 17.658 22.1007 17.658 22.1007 17.658C22.1007 17.658 22.1007 17.658 22.1007 17.658C22.1007 17.658 22.1007 17.658 22.1007 17.658C22.1007 17.658 22.1007 17.658 22.1007 17.658C22.1007 17.658 22.1007 17.658 22.0056 17.7867ZM22.0107 17.7903L21.9179 17.9207C21.9303 17.9296 22.0152 17.9885 22.1357 18.0734L22.2279 17.9426L22.3201 17.8118C22.195 17.7237 22.1161 17.669 22.1034 17.66L22.0107 17.7903ZM22.2279 17.9426L22.1358 18.0734C22.3357 18.2142 22.6349 18.4255 22.8837 18.6052L22.9774 18.4755L23.0711 18.3458C22.8206 18.1649 22.5201 17.9526 22.32 17.8118L22.2279 17.9426ZM22.9774 18.4755L22.8836 18.6052C23.0077 18.695 23.1186 18.7767 23.1967 18.836L23.2935 18.7087L23.3903 18.5813C23.3094 18.5198 23.1963 18.4364 23.0712 18.3459L22.9774 18.4755ZM23.2935 18.7087L23.1974 18.8366C23.2179 18.852 23.2031 18.8414 23.2286 18.8609L23.3257 18.7338L23.4229 18.6066C23.4184 18.6032 23.4153 18.6007 23.41 18.5965C23.4046 18.5923 23.3983 18.5873 23.3895 18.5807L23.2935 18.7087ZM23.3257 18.7338L23.1657 18.735L23.1809 20.6575L23.3409 20.6562L23.5009 20.6549L23.4857 18.7325L23.3257 18.7338ZM23.3409 20.6562L23.1813 20.6679L23.1817 20.6728L23.3412 20.6612L23.5008 20.6495L23.5004 20.6445L23.3409 20.6562ZM23.3412 20.6612L23.1813 20.6658L23.1863 20.8376L23.3463 20.8329L23.5062 20.8282L23.5012 20.6565L23.3412 20.6612ZM23.3463 20.8329L23.4952 20.7744L22.9727 19.4438L22.8237 19.5023L22.6748 19.5608L23.1973 20.8914L23.3463 20.8329ZM22.8237 19.5023L22.7246 19.3767L22.3841 19.6457L22.4833 19.7712L22.5825 19.8968L22.9229 19.6278L22.8237 19.5023ZM22.4833 19.7712L22.6371 19.7273L21.2545 14.8881L21.1007 14.932L20.9468 14.976L22.3294 19.8152L22.4833 19.7712ZM21.1007 14.932V15.092H21.6186V14.932V14.772H21.1007V14.932ZM21.6186 14.932H21.7786V13.498H21.6186H21.4586V14.932H21.6186ZM21.6186 13.498V13.338H21.4613V13.498V13.658H21.6186V13.498ZM21.4613 13.498V13.338H18.3663V13.498V13.658H21.4613V13.498ZM18.3663 13.498H18.2063V14.932H18.3663H18.5263V13.498H18.3663ZM18.3663 14.932V15.092H18.9258V14.932V14.772H18.3663V14.932ZM18.9258 14.932H18.7658V16.4131H18.9258H19.0858V14.932H18.9258ZM18.9258 16.4131L18.8127 16.5262L19.5963 17.3098L19.7094 17.1967L19.8226 17.0835L19.039 16.2999L18.9258 16.4131ZM19.7094 17.1967L19.5522 17.2263L20.3347 21.3749L20.492 21.3453L20.6492 21.3156L19.8667 17.167L19.7094 17.1967ZM20.492 21.3453L20.3928 21.2197L19.941 21.5767L20.0402 21.7023L20.1393 21.8278L20.5911 21.4708L20.492 21.3453ZM20.0402 21.7023L19.9408 21.5768C19.6409 21.8143 19.4812 22.1682 19.4812 22.5264H19.6412H19.8012C19.8012 22.2627 19.9187 22.0025 20.1395 21.8277L20.0402 21.7023ZM19.6412 22.5264H19.4812C19.4812 22.751 19.5442 22.9785 19.673 23.1798L19.8078 23.0935L19.9425 23.0072C19.8474 22.8587 19.8012 22.6912 19.8012 22.5264H19.6412ZM19.8078 23.0935L19.6732 23.1801L20.5739 24.5806L20.7085 24.4941L20.843 24.4075L19.9423 23.007L19.8078 23.0935ZM20.7085 24.4941L20.6114 24.3669L20.5945 24.3798L20.6916 24.507L20.7887 24.6342L20.8056 24.6213L20.7085 24.4941ZM20.6916 24.507L20.594 24.3802C20.2889 24.6149 20.1218 24.9725 20.1218 25.3391H20.2818H20.4418C20.4418 25.0693 20.5648 24.8064 20.7891 24.6338L20.6916 24.507ZM20.2818 25.3391H20.1218C20.1218 25.4987 20.1542 25.6596 20.2189 25.812L20.3662 25.7495L20.5135 25.687C20.4654 25.5738 20.4418 25.4553 20.4418 25.3391H20.2818ZM20.3662 25.7495L20.2172 25.8078L20.9412 27.6598L21.0902 27.6015L21.2392 27.5433L20.5152 25.6913L20.3662 25.7495ZM21.0902 27.6015L20.9753 27.4902L20.172 28.3191L20.2869 28.4304L20.4018 28.5418L21.2051 27.7129L21.0902 27.6015ZM20.2869 28.4304L20.1293 28.4579L20.6468 31.4232L20.8044 31.3957L20.962 31.3682L20.4445 28.4029L20.2869 28.4304ZM20.8044 31.3957L20.6895 31.2843L20.2237 31.7648L20.3386 31.8762L20.4535 31.9876L20.9193 31.5071L20.8044 31.3957ZM20.3386 31.8762L20.179 31.8655L19.8403 36.8979L20 36.9086L20.1596 36.9194L20.4982 31.8869L20.3386 31.8762ZM20 36.9086V36.7486H18.3516V36.9086V37.0686H20V36.9086ZM18.3516 36.9086H18.1916V40.9998H18.3516H18.5116V36.9086H18.3516ZM18.3516 40.9998V41.1598H18.5089V40.9998V40.8398H18.3516V40.9998ZM18.5089 40.9998V41.1598H31.6744V40.9998V40.8398H18.5089V40.9998ZM31.6744 40.9998H31.8344V36.9087H31.6744H31.5144V40.9998H31.6744ZM31.6744 36.9087V36.7487H29.6733V36.9087V37.0687H31.6744V36.9087ZM29.6733 36.9087L29.8315 36.8848L29.5966 35.3255L29.4384 35.3494L29.2802 35.3732L29.5151 36.9325L29.6733 36.9087ZM29.4384 35.3494L29.4771 35.5046L30.1093 35.3469L30.0705 35.1917L30.0318 35.0364L29.3997 35.1941L29.4384 35.3494ZM30.0705 35.1917L30.2283 35.1653L29.5675 31.2199L29.4097 31.2463L29.2519 31.2728L29.9127 35.2181L30.0705 35.1917ZM29.4097 31.2463L29.534 31.347L32.5417 27.6341L32.4174 27.5334L32.2931 27.4326L29.2854 31.1456L29.4097 31.2463ZM32.4174 27.5334L32.2842 27.4447L32.2835 27.4458L32.4167 27.5344L32.5499 27.6231L32.5506 27.622L32.4174 27.5334ZM32.4167 27.5344L32.5414 27.6346C32.7201 27.4121 32.808 27.1434 32.808 26.878H32.648H32.488C32.488 27.073 32.4234 27.2704 32.2919 27.4343L32.4167 27.5344ZM27.1447 18.8257L26.9847 18.8269L26.9951 20.1769L27.1551 20.1756L27.3151 20.1744L27.3047 18.8245L27.1447 18.8257ZM27.1551 20.1756L27.2857 20.0832L26.2403 18.6055L26.1097 18.6979L25.9791 18.7903L27.0245 20.268L27.1551 20.1756ZM26.1097 18.6979L26.0985 18.8575C26.44 18.8815 26.7798 18.9228 27.1164 18.9832L27.1447 18.8257L27.1729 18.6682C26.8244 18.6057 26.4732 18.563 26.1209 18.5383L26.1097 18.6979ZM23.241 18.278L23.3351 18.1486C23.1105 17.9853 22.8307 17.7865 22.6145 17.6343L22.5224 17.7652L22.4303 17.8961C22.6458 18.0477 22.9241 18.2454 23.1469 18.4074L23.241 18.278ZM22.5224 17.7652L22.4836 17.9204L23.8835 18.2699L23.9222 18.1146L23.961 17.9594L22.5611 17.61L22.5224 17.7652ZM23.9222 18.1146L24.066 18.1849L24.1575 17.9979L24.0138 17.9275L23.8701 17.8572L23.7785 18.0443L23.9222 18.1146ZM24.0138 17.9275L24.1649 17.875L23.6913 16.5122L23.5401 16.5647L23.389 16.6172L23.8627 17.9801L24.0138 17.9275ZM23.5401 16.5647L23.4177 16.6677L24.3001 17.7157L24.4225 17.6126L24.5449 17.5096L23.6625 16.4616L23.5401 16.5647ZM24.4225 17.6126L24.4353 17.7721L24.516 17.7656L24.5032 17.6062L24.4905 17.4467L24.4097 17.4531L24.4225 17.6126ZM24.5032 17.6062L24.5161 17.7656C24.67 17.7532 24.8233 17.7437 24.9763 17.7377L24.9701 17.5778L24.9639 17.4179C24.8059 17.4241 24.6482 17.4339 24.4904 17.4467L24.5032 17.6062ZM24.9701 17.5778L24.9765 17.7377L25.1026 17.7327L25.0962 17.5728L25.0898 17.4129L24.9637 17.4179L24.9701 17.5778ZM25.0962 17.5728L25.2535 17.6019L25.5423 16.0393L25.3849 16.0103L25.2276 15.9812L24.9388 17.5437L25.0962 17.5728ZM25.3849 16.0103L25.2276 16.0393L25.5163 17.6011L25.6736 17.5721L25.831 17.543L25.5423 15.9812L25.3849 16.0103ZM25.6736 17.5721L25.6681 17.732L25.7945 17.7363L25.8 17.5764L25.8056 17.4165L25.6791 17.4122L25.6736 17.5721ZM25.8 17.5764L25.7946 17.7363C25.9179 17.7405 26.043 17.748 26.1703 17.7569L26.1814 17.5973L26.1926 17.4376C26.0633 17.4286 25.9341 17.4209 25.8055 17.4165L25.8 17.5764ZM26.1814 17.5973L26.1706 17.7569L26.25 17.7623L26.2608 17.6026L26.2716 17.443L26.1923 17.4376L26.1814 17.5973ZM26.2608 17.6026L26.3832 17.7057L27.2569 16.6682L27.1346 16.5652L27.0122 16.4621L26.1384 17.4996L26.2608 17.6026ZM27.1346 16.5652L26.9834 16.5126L26.5249 17.831L26.676 17.8835L26.8271 17.9361L27.2857 16.6177L27.1346 16.5652ZM26.676 17.8835L26.5536 17.9866L26.611 18.0548L26.7334 17.9518L26.8558 17.8487L26.7984 17.7805L26.676 17.8835ZM26.7334 17.9518L26.6111 18.0549C26.6456 18.0958 26.6783 18.1398 26.71 18.1863L26.8422 18.0961L26.9744 18.0059C26.938 17.9526 26.8988 17.8996 26.8557 17.8486L26.7334 17.9518ZM26.8422 18.0961L26.7098 18.186L26.7716 18.2769L26.9039 18.187L27.0363 18.0971L26.9745 18.0062L26.8422 18.0961ZM26.9039 18.187L26.9426 18.3422L28.275 18.0101L28.2363 17.8548L28.1976 17.6996L26.8652 18.0317L26.9039 18.187ZM28.2363 17.8548L28.1484 17.7212L27.1367 18.3869L27.2247 18.5206L27.3127 18.6542L28.3243 17.9885L28.2363 17.8548ZM27.2247 18.5206L27.2535 18.3632C26.6469 18.2524 26.0307 18.1958 25.414 18.1958V18.3558V18.5158C26.0111 18.5158 26.6081 18.5706 27.196 18.678L27.2247 18.5206ZM25.414 18.3558V18.1958C24.7863 18.1958 24.1592 18.2549 23.5421 18.3694L23.5713 18.5267L23.6005 18.684C24.1988 18.573 24.8063 18.5158 25.414 18.5158V18.3558ZM23.5713 18.5267L23.6601 18.3936C23.663 18.3955 23.6681 18.3991 23.674 18.4041C23.6792 18.4086 23.6833 18.4128 23.6823 18.4118L23.5692 18.525L23.4561 18.6381C23.4609 18.6429 23.4695 18.6511 23.4826 18.6598L23.5713 18.5267ZM23.5692 18.525L23.6704 18.401C23.5975 18.3415 23.4766 18.2515 23.3351 18.1486L23.241 18.278L23.147 18.4075C23.289 18.5107 23.403 18.5959 23.468 18.6489L23.5692 18.525ZM23.6522 20.1868L23.8122 20.1855L23.8014 18.8323L23.6414 18.8336L23.4814 18.8348L23.4922 20.1881L23.6522 20.1868ZM23.6414 18.8336L23.6704 18.9909C24.0339 18.9239 24.4019 18.8794 24.7719 18.8546L24.7612 18.695L24.7505 18.5353C24.3692 18.5608 23.9888 18.6068 23.6124 18.6762L23.6414 18.8336ZM24.7612 18.695L24.6328 18.5995L23.5238 20.0913L23.6522 20.1868L23.7806 20.2822L24.8896 18.7904L24.7612 18.695ZM25.1674 18.6763L25.1709 18.8363C25.2592 18.8343 25.3337 18.8306 25.4141 18.8306V18.6706V18.5106C25.33 18.5106 25.2401 18.5147 25.1639 18.5164L25.1674 18.6763ZM25.4141 18.6706V18.8306C25.5094 18.8306 25.6037 18.8344 25.7047 18.8373L25.7093 18.6774L25.7139 18.5175C25.618 18.5147 25.5155 18.5106 25.4141 18.5106V18.6706ZM25.7093 18.6774L25.5787 18.7698L27.0084 20.7903L27.139 20.6979L27.2696 20.6054L25.8399 18.585L25.7093 18.6774ZM27.139 20.6979L26.9878 20.6454C26.8697 20.9855 26.736 21.2979 26.5888 21.545L26.7263 21.6269L26.8638 21.7088C27.0262 21.4359 27.1682 21.1012 27.2901 20.7504L27.139 20.6979ZM26.7263 21.6269L26.5887 21.5452C26.429 21.8142 26.2634 21.9848 26.1222 22.0544L26.193 22.1979L26.2638 22.3414C26.4867 22.2315 26.6918 21.9985 26.8639 21.7086L26.7263 21.6269ZM26.193 22.1979L26.0499 22.2695L26.1178 22.4052L26.2609 22.3337L26.404 22.2621L26.3361 22.1264L26.193 22.1979ZM26.2609 22.3337L26.3249 22.187L23.5184 20.9613L23.4543 21.1079L23.3903 21.2546L26.1968 22.4803L26.2609 22.3337ZM23.4543 21.1079L23.6031 21.0492L23.5701 20.9655L23.4213 21.0243L23.2725 21.0831L23.3055 21.1667L23.4543 21.1079ZM23.4213 21.0243L23.5497 21.1197L25.2958 18.7718L25.1674 18.6763L25.039 18.5808L23.2929 20.9288L23.4213 21.0243ZM18.6809 13.813V13.973H21.3039V13.813V13.653H18.6809V13.813ZM21.3039 13.813H21.1439V14.6171H21.3039H21.4639V13.813H21.3039ZM21.3039 14.6171V14.4571H18.6809V14.6171V14.7771H21.3039V14.6171ZM18.6809 14.6171H18.8409V13.813H18.6809H18.5209V14.6171H18.6809ZM20.0007 17.043L20.1138 16.9299L19.3535 16.1696L19.2404 16.2827L19.1273 16.3959L19.8875 17.1561L20.0007 17.043ZM19.2404 16.2827H19.4004V14.932H19.2404H19.0804V16.2827H19.2404ZM19.2404 14.932V15.092H20.7734V14.932V14.772H19.2404V14.932ZM20.7734 14.932L20.6196 14.976L22.0625 20.0263L22.2164 19.9824L22.3702 19.9384L20.9273 14.8881L20.7734 14.932ZM22.2164 19.9824L22.1172 19.8568L20.6717 20.9992L20.771 21.1248L20.8702 21.2503L22.3156 20.1079L22.2164 19.9824ZM20.771 21.1248L20.9282 21.0951L20.1579 17.0133L20.0007 17.043L19.8435 17.0727L20.6137 21.1544L20.771 21.1248ZM31.3598 40.6852V40.5252H18.6662V40.6852V40.8452H31.3598V40.6852ZM18.6662 40.6852H18.8262V37.2233H18.6662H18.5062V40.6852H18.6662ZM18.6662 37.2233V37.3833H31.3598V37.2233V37.0633H18.6662V37.2233ZM31.3598 37.2233H31.1998V40.6852H31.3598H31.5198V37.2233H31.3598ZM29.0846 35.1134L28.9264 35.1372L29.1965 36.9325L29.3547 36.9087L29.513 36.8849L29.2429 35.0896L29.0846 35.1134ZM29.3547 36.9087V36.7487H20.3149V36.9087V37.0687H29.3547V36.9087ZM20.3149 36.9087L20.4745 36.9194L20.8045 32.0235L20.6449 32.0127L20.4853 32.002L20.1552 36.8979L20.3149 36.9087ZM20.6449 32.0127L20.7598 32.1241L22.4969 30.332L22.382 30.2207L22.2671 30.1093L20.53 31.9014L20.6449 32.0127ZM22.382 30.2207L22.4933 30.1057L22.2671 29.8867L22.1558 30.0016L22.0445 30.1165L22.2707 30.3356L22.382 30.2207ZM22.1558 30.0016L22.0409 29.8903L20.9602 31.0054L21.0751 31.1167L21.19 31.2281L22.2707 30.113L22.1558 30.0016ZM21.0751 31.1167L21.2328 31.0892L20.7824 28.5068L20.6248 28.5343L20.4672 28.5617L20.9175 31.1442L21.0751 31.1167ZM20.6248 28.5343L20.7397 28.6456L22.9688 26.3454L22.8539 26.2341L22.739 26.1227L20.5099 28.4229L20.6248 28.5343ZM22.8539 26.2341L22.9652 26.1191L22.7394 25.9004L22.628 26.0154L22.5167 26.1303L22.7426 26.349L22.8539 26.2341ZM22.628 26.0154L22.5132 25.904L21.2164 27.2417L21.3313 27.3531L21.4461 27.4645L22.7429 26.1268L22.628 26.0154ZM21.3313 27.3531L21.4803 27.2948L20.8072 25.5743L20.6582 25.6325L20.5092 25.6908L21.1823 27.4114L21.3313 27.3531ZM20.6582 25.6325L20.7971 25.5531L20.7957 25.5506L20.6568 25.63L20.5179 25.7094L20.5193 25.7119L20.6582 25.6325ZM20.6568 25.63L20.8038 25.5669C20.7719 25.4927 20.7567 25.4157 20.7565 25.3385L20.5965 25.3391L20.4365 25.3397C20.4369 25.4587 20.4605 25.5784 20.5097 25.6931L20.6568 25.63ZM20.5965 25.3391L20.7565 25.3394C20.7567 25.1645 20.8364 24.9945 20.981 24.883L20.8833 24.7563L20.7857 24.6296C20.5604 24.8032 20.4369 25.0678 20.4365 25.3389L20.5965 25.3391ZM20.8833 24.7563L20.9808 24.8832L21.2272 24.6939L21.1298 24.567L21.0323 24.4402L20.7859 24.6294L20.8833 24.7563ZM21.1298 24.567L21.2643 24.4805L20.2074 22.8364L20.0728 22.923L19.9383 23.0095L20.9952 24.6536L21.1298 24.567ZM20.0728 22.923L20.2074 22.8364C20.1455 22.7402 20.1162 22.6332 20.1162 22.5265H19.9562H19.7962C19.7962 22.6927 19.8422 22.8601 19.9383 23.0095L20.0728 22.923ZM19.9562 22.5265H20.1162C20.1162 22.3549 20.1918 22.1878 20.3345 22.0748L20.2352 21.9494L20.136 21.8239C19.9138 21.9997 19.7962 22.2607 19.7962 22.5265H19.9562ZM20.2352 21.9494L20.3345 22.0749L22.7851 20.1377L22.6859 20.0122L22.5867 19.8867L20.136 21.8238L20.2352 21.9494ZM22.6859 20.0122L22.5369 20.0707L23.0602 21.4028L23.2091 21.3443L23.358 21.2858L22.8348 19.9537L22.6859 20.0122ZM23.2091 21.3443L23.1451 21.4909L27.3375 23.3221L27.4016 23.1754L27.4656 23.0288L23.2732 21.1976L23.2091 21.3443ZM27.4016 23.1754L27.3374 23.322C27.5109 23.398 27.636 23.5542 27.6714 23.7398L27.8285 23.7098L27.9857 23.6799C27.9305 23.39 27.7353 23.1469 27.4657 23.0289L27.4016 23.1754ZM27.8285 23.7098L27.6707 23.7362L29.554 34.9833L29.7118 34.9569L29.8696 34.9305L27.9863 23.6834L27.8285 23.7098ZM29.7118 34.9569L29.673 34.8017L29.0459 34.9582L29.0846 35.1134L29.1234 35.2686L29.7505 35.1121L29.7118 34.9569ZM32.1714 27.3377L32.0583 27.2245L32.0572 27.2256L32.1703 27.3388L32.2834 27.452L32.2845 27.4509L32.1714 27.3377ZM32.1703 27.3388L32.046 27.238L29.2161 30.7316L29.3404 30.8323L29.4647 30.933L32.2946 27.4395L32.1703 27.3388ZM29.3404 30.8323L29.4982 30.8059L28.6266 25.6004L28.4688 25.6269L28.311 25.6533L29.1826 30.8587L29.3404 30.8323ZM28.4688 25.6269L28.5935 25.7271L29.2356 24.9288L29.1109 24.8285L28.9862 24.7283L28.3441 25.5266L28.4688 25.6269ZM29.1109 24.8285L29.2358 24.9286C29.3319 24.8087 29.4722 24.7327 29.6261 24.7169L29.6097 24.5577L29.5933 24.3986C29.3551 24.4231 29.1364 24.541 28.9861 24.7285L29.1109 24.8285ZM29.6097 24.5577L29.6259 24.7169C29.6442 24.715 29.6636 24.7141 29.6833 24.7141V24.5541V24.3941C29.6543 24.3941 29.624 24.3954 29.5935 24.3985L29.6097 24.5577ZM29.6833 24.5541V24.7141C29.817 24.7141 29.947 24.7605 30.05 24.8463L30.1523 24.7233L30.2546 24.6002C30.0935 24.4662 29.8909 24.3941 29.6833 24.3941V24.5541ZM30.1523 24.7233L30.0502 24.8464L31.9654 26.4352L32.0675 26.312L32.1697 26.1889L30.2545 24.6001L30.1523 24.7233ZM32.0675 26.312L31.9654 26.4351C32.1024 26.5489 32.1731 26.7117 32.1733 26.8783L32.3333 26.878L32.4933 26.8777C32.4929 26.6205 32.3832 26.366 32.1697 26.1889L32.0675 26.312ZM32.3333 26.878L32.1733 26.8776C32.1731 27.0045 32.1319 27.1305 32.0463 27.2379L32.1714 27.3377L32.2965 27.4374C32.4285 27.2719 32.4929 27.0753 32.4933 26.8784L32.3333 26.878Z" fill="black" mask="url(#path-3-outside-1_1186_158)"/>
<path d="M24.0791 35.227L24.3732 35.339L26.2162 30.5023L25.9221 30.3906L24.0791 35.227Z" fill="black"/>
<path d="M20.0439 9.95215H20.0449C20.13 9.95966 20.2101 9.9869 20.2871 10.0244H20.2881C20.3651 10.0625 20.4401 10.1129 20.5146 10.1719L20.627 10.2686C20.7376 10.3721 20.8457 10.4965 20.9453 10.6367C21.2101 11.0095 21.4227 11.5026 21.4238 12.0225C21.4238 12.0449 21.4235 12.0677 21.4229 12.0898C21.4042 12.5917 21.2819 12.9265 21.1523 13.1387C21.0237 13.3508 20.8903 13.4359 20.8652 13.4502L20.8223 13.4746L20.7969 13.4326L20.6855 13.2412V13.2402L20.6367 13.1621L20.6123 13.1221L20.6504 13.0957L20.6572 13.0908H20.6582C20.6619 13.0883 20.6706 13.0807 20.6846 13.0674C20.7119 13.0414 20.7543 12.9961 20.7988 12.9229C20.8876 12.7766 20.9922 12.516 21.0088 12.0742C21.0095 12.0568 21.0098 12.0396 21.0098 12.0225C21.0101 11.7576 20.9352 11.4848 20.8184 11.2373C20.7015 10.9903 20.5436 10.7709 20.3877 10.6143C20.284 10.5098 20.1818 10.4346 20.1045 10.3965C20.0708 10.3798 20.0429 10.3719 20.0244 10.3682C20.0231 10.3755 20.0219 10.3837 20.0205 10.3926C20.0038 10.4952 19.9837 10.6794 19.877 10.8828L19.8252 10.9707C19.7244 11.1294 19.5706 11.2924 19.3398 11.4492C19.178 11.5594 19.073 11.686 19.0059 11.8203C18.9386 11.9547 18.9092 12.1003 18.9092 12.2461C18.9089 12.437 18.9612 12.6272 19.042 12.7803V12.7812C19.1217 12.9354 19.2296 13.0436 19.3145 13.085L19.3604 13.1074L19.1973 13.4336L19.1748 13.4795L19.1299 13.4561C18.938 13.3587 18.7856 13.1832 18.6748 12.9736C18.5639 12.763 18.4945 12.5106 18.4941 12.2461C18.4941 12.044 18.5358 11.8338 18.6348 11.6357C18.7335 11.4371 18.8891 11.2537 19.1064 11.1064C19.3274 10.9555 19.4386 10.8176 19.5029 10.7012C19.566 10.5841 19.5867 10.4826 19.6025 10.3818V10.3809C19.6134 10.3158 19.6193 10.242 19.6543 10.1582V10.1572C19.6755 10.1073 19.7152 10.05 19.7754 10.0098C19.8445 9.96374 19.9226 9.9502 19.9922 9.9502C20.0093 9.9502 20.0267 9.95074 20.0439 9.95215Z" fill="black" stroke="#0C0C0C" stroke-width="0.1"/>
</g>
<defs>
<clipPath id="clip0_1186_158">
<rect width="31" height="31" fill="white" transform="translate(10 10)"/>
</clipPath>
</defs>
</svg>
