<?xml version="1.0" ?><!-- Uploaded to: SVG Repo, www.svgrepo.com, Generator: SVG Repo Mixer Tools -->
<svg fill="#000000" width="800px" height="800px" viewBox="0 0 64 64" data-name="Layer 1" id="Layer_1" xmlns="http://www.w3.org/2000/svg"><title/><path d="M11,23v5h2V24H31v4h2V24H51v4h2V23a.99974.99974,0,0,0-1-1H33V19H31v3H12A.99974.99974,0,0,0,11,23Z"/><circle cx="32" cy="36" r="5"/><circle cx="52" cy="36" r="5"/><circle cx="12" cy="36" r="5"/><rect height="8" width="8" x="2" y="54"/><rect height="8" width="8" x="14" y="54"/><rect height="8" width="8" x="42" y="54"/><rect height="8" width="8" x="54" y="54"/><rect height="8" width="8" x="28" y="54"/><rect height="8" width="2" x="31" y="44"/><path d="M7,50H17v2h2V49a.99974.99974,0,0,0-1-1H13V44H11v4H6a.99974.99974,0,0,0-1,1v3H7Z"/><path d="M59,52V49a.99974.99974,0,0,0-1-1H53V44H51v4H46a.99974.99974,0,0,0-1,1v3h2V50H57v2Z"/><polygon points="33.889 8.111 32 2 30.111 8.111 24 8.111 28.944 11.889 27.056 18 32 14.223 36.944 18 35.056 11.889 40 8.111 33.889 8.111"/></svg>