<?xml version="1.0" encoding="UTF-8"?>
<svg version="1.1" xmlns="http://www.w3.org/2000/svg" width="512" height="512">
<path d="M0 0 C0.74213242 0.30860962 1.48426483 0.61721924 2.24888611 0.93518066 C4.69377761 1.95542547 7.12981641 2.99525948 9.56640625 4.03515625 C11.30296234 4.76384887 13.04011701 5.49111646 14.77783203 6.21704102 C18.41095282 7.73683105 22.0408441 9.26398607 25.66845703 10.796875 C30.89475076 13.00293708 36.13242245 15.18061704 41.375 17.34765625 C42.21008591 17.69288834 43.04517181 18.03812042 43.90556335 18.39381409 C45.59197519 19.09090147 47.27841215 19.78792807 48.96487427 20.4848938 C53.24786707 22.25654006 57.52819186 24.03460514 61.80859375 25.8125 C71.22710861 29.72383339 80.64748312 33.6306688 90.06842041 37.53616333 C94.33866353 39.30646519 98.6087784 41.07707637 102.87890625 42.84765625 C104.58723897 43.55599107 106.2955723 44.2643244 108.00390625 44.97265625 C118.25390625 49.22265625 118.25390625 49.22265625 120.81584167 50.28495789 C122.52602323 50.99403371 124.23623854 51.70302812 125.94648743 52.41194153 C130.18932212 54.17075221 134.43158111 55.93092462 138.67260742 57.6940918 C146.69360706 61.02701682 154.72003551 64.344888 162.76553345 67.61831665 C166.57542318 69.16934725 170.38230238 70.72768953 174.18896484 72.28662109 C176.0085969 73.02938734 177.82970541 73.76854784 179.65234375 74.50390625 C182.17566654 75.52222049 184.69368568 76.55272531 187.2109375 77.5859375 C187.95684647 77.88313187 188.70275543 78.18032623 189.4712677 78.48652649 C193.50348755 80.15738883 196.40179889 81.67192088 199.12890625 85.09765625 C199.62915224 87.89291674 199.62915224 87.89291674 199.6294775 91.18810368 C199.63929179 92.44475679 199.64910608 93.70140989 199.65921777 94.9961434 C199.64987833 96.39326982 199.64016276 97.79039377 199.63011169 99.18751526 C199.63400318 100.66963817 199.6396424 102.15175735 199.64688259 103.63386768 C199.66167721 107.71233566 199.65143249 111.79041914 199.63714588 115.86887491 C199.62606271 120.264969 199.63796981 124.66100796 199.64698792 129.05709839 C199.6609402 137.67099258 199.65334972 146.28474045 199.63831233 154.89862771 C199.62147673 164.92300701 199.62465936 174.94734962 199.62840641 184.97173869 C199.63428856 202.85317769 199.62009912 220.73454633 199.59545898 238.6159668 C199.57153358 255.98057696 199.56445567 273.34509311 199.57495117 290.7097168 C199.58635126 309.60490628 199.58830198 328.50005225 199.57385308 347.3952412 C199.57232718 349.40864018 199.57080683 351.42203917 199.56929207 353.43543816 C199.56853425 354.42615165 199.56777644 355.41686515 199.56699566 356.43760027 C199.56224608 363.43087035 199.56410901 370.42412104 199.56835747 377.41739082 C199.57327568 385.93501701 199.56733752 394.45255419 199.54746317 402.97015996 C199.53756744 407.31884942 199.53251054 411.66740314 199.54035568 416.01609993 C199.54738309 419.99275978 199.54067741 423.96914499 199.52275205 427.94576847 C199.51868838 429.38848696 199.51973934 430.83123025 199.52627092 432.27393968 C199.53435977 434.22696796 199.52236702 436.18004917 199.50922298 438.13304996 C199.50819385 439.2202993 199.50716473 440.30754864 199.50610441 441.42774493 C199.12890625 444.09765625 199.12890625 444.09765625 196.12890625 447.09765625 C180.61890625 447.09765625 165.10890625 447.09765625 149.12890625 447.09765625 C149.12890625 363.60765625 149.12890625 280.11765625 149.12890625 194.09765625 C153.74890625 193.76765625 158.36890625 193.43765625 163.12890625 193.09765625 C168.47064476 190.49897265 171.80727351 188.08010536 175.12890625 183.09765625 C175.48549316 182.57010742 175.84208008 182.04255859 176.20947266 181.49902344 C177.62628821 177.79859918 177.45429426 174.16870622 177.46484375 170.23828125 C177.47150055 169.37507263 177.47815735 168.51186401 177.48501587 167.62249756 C177.49513063 165.79685594 177.49983325 163.97117743 177.49951172 162.14550781 C177.50386941 159.37111326 177.54015724 156.59833036 177.578125 153.82421875 C177.58399675 152.04557832 177.58796375 150.26693038 177.58984375 148.48828125 C177.60421478 147.66716858 177.61858582 146.84605591 177.63339233 146.00006104 C177.58387309 139.66402866 176.06663954 134.36108073 171.75228882 129.56842041 C166.75906627 125.08378471 161.57400351 123.84985839 155.01494217 123.83759403 C153.19839091 123.82699565 153.19839091 123.82699565 151.34514165 123.81618315 C150.00981822 123.81843427 148.67449511 123.82088074 147.33917236 123.82350159 C145.91393718 123.8190473 144.48870446 123.81373262 143.06347537 123.80763286 C139.15137392 123.79346538 135.23935197 123.79178933 131.32722855 123.79222977 C127.10622772 123.79058047 122.88525955 123.77751187 118.66427612 123.76603699 C109.43698199 123.74319715 100.20971088 123.73526756 90.98239231 123.73021054 C85.21960928 123.72695253 79.45683291 123.72042944 73.69405365 123.71320915 C57.73465312 123.69364503 41.77525878 123.67723956 25.81584549 123.67433262 C24.28424477 123.67405126 24.28424477 123.67405126 22.72170262 123.67376423 C20.65180699 123.67339798 18.58191136 123.67303428 16.51201573 123.67267311 C14.97079451 123.6723989 14.97079451 123.6723989 13.3984375 123.67211914 C12.3697009 123.67193859 11.3409643 123.67175804 10.28105387 123.67157202 C-6.38903874 123.66803019 -23.05900219 123.6410064 -39.72905001 123.60362125 C-56.84898304 123.56553475 -73.96885199 123.54617512 -91.08882833 123.54587311 C-100.69908196 123.54528864 -110.30918149 123.5368032 -119.91939545 123.50787544 C-128.10229378 123.48335706 -136.28498178 123.4760818 -144.46790692 123.49112297 C-148.64139057 123.49828986 -152.81445893 123.49744421 -156.98789597 123.47471237 C-160.8126342 123.45407976 -164.636639 123.45676191 -168.46136966 123.47758722 C-170.49172467 123.48271892 -172.52209662 123.46333556 -174.55235553 123.44292551 C-182.31487321 123.5140303 -188.45644325 124.48647994 -194.87109375 129.09765625 C-200.25248746 134.77012276 -201.04085458 140.10398627 -201.109375 147.640625 C-201.11744675 148.48305252 -201.12551849 149.32548004 -201.13383484 150.19343567 C-201.14766353 151.97797598 -201.15839112 153.7625426 -201.16625977 155.54711914 C-201.17775959 157.36360476 -201.19817971 159.18005711 -201.2277832 160.99633789 C-201.2706738 163.62799936 -201.28666005 166.2586564 -201.296875 168.890625 C-201.31438309 169.69300095 -201.33189117 170.49537689 -201.34992981 171.32206726 C-201.32614089 177.58747954 -199.82072026 182.98013171 -195.42353821 187.62760925 C-187.9470835 194.10525353 -183.7802948 193.3184276 -172.87109375 194.09765625 C-172.87109375 277.58765625 -172.87109375 361.07765625 -172.87109375 447.09765625 C-188.38109375 447.09765625 -203.89109375 447.09765625 -219.87109375 447.09765625 C-223.4104504 443.5582996 -223.24687432 442.92538784 -223.25141048 438.13304996 C-223.25985043 436.8790046 -223.26829037 435.62495924 -223.27698606 434.3329125 C-223.27119026 432.93353413 -223.2651092 431.53415692 -223.2587738 430.13478088 C-223.26294403 428.65423504 -223.26841983 427.17369238 -223.27509362 425.69315571 C-223.28960798 421.61442798 -223.28528494 417.53590128 -223.2779268 413.45716226 C-223.27321216 409.06239485 -223.28568982 404.667672 -223.29594421 400.2729187 C-223.31317115 391.65925136 -223.31396417 383.04565684 -223.30873131 374.43197674 C-223.3046956 367.43312301 -223.30612602 360.43429085 -223.31147957 353.43543816 C-223.31222799 352.44064483 -223.31297641 351.44585151 -223.31374751 350.42091293 C-223.31527894 348.40021745 -223.31681728 346.37952198 -223.31836248 344.35882651 C-223.33210162 325.39407392 -223.32663992 306.42936253 -223.31517727 287.46461087 C-223.3052434 270.10160606 -223.31818572 252.7387078 -223.34211146 235.37571944 C-223.3664739 217.56207855 -223.37611737 199.74848735 -223.36945873 181.93483013 C-223.36596015 171.92792758 -223.36824059 161.92110699 -223.38570976 151.914217 C-223.40039611 143.39548619 -223.40111409 134.87689508 -223.38363885 126.35816712 C-223.37509692 122.00931598 -223.37305666 117.66071473 -223.38829041 113.3118763 C-223.40205311 109.33382976 -223.39748403 105.3562492 -223.37805117 101.37823021 C-223.37426478 99.93613314 -223.37728843 98.4939995 -223.38766282 97.05193479 C-223.40072866 95.09736081 -223.38692983 93.14266171 -223.371665 91.18810368 C-223.371504 89.55698614 -223.371504 89.55698614 -223.37133974 87.89291674 C-222.75056978 84.4241958 -221.57562728 83.27964991 -218.87109375 81.09765625 C-216.87734985 79.98521423 -216.87734985 79.98521423 -214.74072266 79.10913086 C-213.92668472 78.76959381 -213.11264679 78.43005676 -212.27394104 78.08023071 C-211.39076706 77.72375458 -210.50759308 77.36727844 -209.59765625 77 C-208.66336288 76.61355316 -207.72906952 76.22710632 -206.76646423 75.82894897 C-203.68011775 74.55495235 -200.5881912 73.29512305 -197.49609375 72.03515625 C-195.32635118 71.14246837 -193.15700436 70.24881805 -190.98803711 69.35424805 C-186.49951909 67.50470951 -182.00879257 65.66069607 -177.51611328 63.82128906 C-171.30499767 61.27754665 -165.10038329 58.71835101 -158.8984375 56.15234375 C-156.97705191 55.35750052 -155.0556652 54.56266001 -153.13427734 53.76782227 C-152.19348328 53.37861603 -151.25268921 52.98940979 -150.28338623 52.58840942 C-145.51298017 50.6160742 -140.7407452 48.6481739 -135.96875 46.6796875 C-125.43090824 42.33173972 -114.90016775 37.96678468 -104.37109375 33.59765625 C-90.47275888 27.83128602 -76.57046753 22.07455914 -62.66357422 16.32885742 C-60.72292872 15.52706525 -58.78233368 14.72515091 -56.84179688 13.9230957 C-55.92849609 13.54564209 -55.01519531 13.16818848 -54.07421875 12.77929688 C-52.72086929 12.21982361 -52.72086929 12.21982361 -51.34017944 11.64904785 C-49.55227365 10.91132121 -47.76356558 10.17553569 -45.97402954 9.44177246 C-41.26582609 7.51019629 -36.57462743 5.546548 -31.89990234 3.53515625 C-30.42114876 2.90782593 -30.42114876 2.90782593 -28.91252136 2.26782227 C-27.03221732 1.46988106 -25.15644208 0.66114613 -23.28633118 -0.16040039 C-14.69437967 -3.77731774 -8.54858415 -3.71243125 0 0 Z M-33.87109375 57.09765625 C-38.73575544 64.49547079 -40.74038176 71.76555891 -39.37109375 80.53515625 C-37.48617087 87.71042934 -33.02083139 94.04360482 -26.80859375 98.09765625 C-19.49239517 102.05651705 -12.38006693 103.59642101 -4.21484375 101.375 C4.44401374 98.15400934 9.99840032 93.4363092 14.12890625 85.09765625 C16.90107188 78.27703092 16.61848553 71.39303787 14.22265625 64.484375 C10.883864 57.05105036 5.88214796 51.52959535 -1.62109375 48.16015625 C-13.48122188 44.43202167 -25.75616102 47.67060753 -33.87109375 57.09765625 Z " fill="#000000" transform="translate(267.87109375,33.90234375)"/>
<path d="M0 0 C1.79728955 -0.01564648 1.79728955 -0.01564648 3.63088799 -0.03160906 C5.59998225 -0.01822473 5.59998225 -0.01822473 7.6088562 -0.00457001 C9.02029629 -0.00917907 10.43173158 -0.01553203 11.84315681 -0.02347898 C15.72167575 -0.04019502 19.59980158 -0.03191582 23.47832203 -0.01953411 C27.66108187 -0.01049517 31.84377344 -0.02444759 36.02651978 -0.0354538 C44.22050157 -0.05325599 52.41433695 -0.04939148 60.60832453 -0.03780323 C67.26673746 -0.02877586 73.92510931 -0.02754189 80.58352661 -0.0318985 C81.53057909 -0.03251143 82.47763157 -0.03312436 83.45338261 -0.03375587 C85.3772003 -0.03503475 87.30101797 -0.0363316 89.22483563 -0.03764623 C107.2716258 -0.04905701 125.31833474 -0.03593052 143.36511159 -0.01444477 C158.85574293 0.00342666 174.34625437 0.0003227 189.83688354 -0.01811981 C207.81835085 -0.03951773 225.79974694 -0.04795833 243.7812252 -0.03567076 C245.69803237 -0.03439654 247.61483954 -0.03313906 249.53164673 -0.0318985 C250.94636755 -0.03097285 250.94636755 -0.03097285 252.38966858 -0.03002849 C259.04138212 -0.02657236 265.69305053 -0.03240961 272.34475708 -0.04181671 C280.44913377 -0.0530261 288.55335547 -0.05001902 296.65771437 -0.02869374 C300.7940496 -0.01816898 304.93012624 -0.0140856 309.06645966 -0.02729034 C312.85143483 -0.03919083 316.6359112 -0.03269099 320.42084098 -0.01138014 C322.44198958 -0.00478007 324.46317267 -0.01787115 326.48428535 -0.03160906 C327.68247839 -0.02117807 328.88067142 -0.01074708 330.11517334 0 C331.1494792 0.00064941 332.18378506 0.00129882 333.24943352 0.00196791 C336.83491369 0.64215655 338.51563628 1.93126276 341.05758667 4.50336456 C341.55485625 7.34270651 341.73779982 9.57540009 341.68649292 12.40961456 C341.68890488 13.17132965 341.69131683 13.93304474 341.69380188 14.7178421 C341.69282434 16.32495084 341.67945261 17.93209362 341.6545105 19.53900909 C341.62019315 21.99574164 341.63385362 24.44887711 341.65328979 26.90570831 C341.64639107 28.46952567 341.63671844 30.03333376 341.62399292 31.59711456 C341.62895279 32.32950348 341.63391266 33.0618924 341.63902283 33.81647491 C341.56425514 37.0624146 341.3807487 39.07821415 339.39008331 41.697124 C336.45002521 43.97384848 334.89690636 44.00442616 331.20419312 44.00672913 C330.00040764 44.01716012 328.79662216 44.0275911 327.55635834 44.03833818 C326.21887475 44.02968977 324.88139356 44.02066313 323.54391479 44.01129913 C322.1243755 44.01590676 320.70484098 44.02225874 319.28531647 44.03020811 C315.37980557 44.04694392 311.47468441 44.03863601 307.56917191 44.02626324 C303.35914689 44.01723234 299.14919004 44.0311727 294.93917847 44.04218292 C286.68991585 44.05999376 278.4407986 44.05611678 270.19153023 44.04453236 C263.48874847 44.03550838 256.78600752 44.03426954 250.08322144 44.03862762 C249.13019402 44.03924056 248.1771666 44.03985349 247.19525957 44.04048499 C245.25936062 44.04176386 243.32346168 44.04306071 241.38756275 44.04437536 C223.22349184 44.05578867 205.0595016 44.04265569 186.89544392 44.02117389 C171.30101359 44.00330223 155.70670235 44.00640613 140.11227417 44.02484894 C122.01436145 44.0462424 103.91651948 44.05468996 85.81859589 44.04239988 C83.88971457 44.04112565 81.96083324 44.03986817 80.0319519 44.03862762 C78.60828521 44.03770197 78.60828521 44.03770197 77.15585756 44.03675762 C70.45910224 44.03330014 63.7623917 44.03914162 57.06564331 44.04854584 C48.90741538 44.05975028 40.74934144 44.05675861 32.59113121 44.03542286 C28.42657366 44.02489141 24.26227309 44.02082604 20.09771729 44.03401947 C16.28808319 44.0459062 12.47894519 44.03944304 8.66935635 44.01810926 C7.28853059 44.0136273 5.90766324 44.01594512 4.52686405 44.02561241 C2.65493133 44.03771668 0.78288181 44.02294945 -1.08901978 44.00672913 C-2.65097454 44.00575501 -2.65097454 44.00575501 -4.24448395 44.00476122 C-7.67150255 43.36786698 -8.85347835 42.25155743 -10.94241333 39.50336456 C-11.35252321 36.73301132 -11.52757181 34.36612399 -11.50881958 31.59711456 C-11.51501816 30.83539948 -11.52121674 30.07368439 -11.52760315 29.28888702 C-11.53469256 27.68184434 -11.53154251 26.07472807 -11.51882935 24.46772003 C-11.50495519 22.01077827 -11.53904795 19.55764134 -11.57717896 17.10102081 C-11.57813015 15.5372178 -11.57627131 13.97341003 -11.57131958 12.40961456 C-11.58457779 11.67722565 -11.597836 10.94483673 -11.61149597 10.19025421 C-11.54610653 6.60326621 -11.3360277 4.9016478 -8.77437019 2.30960512 C-5.51271544 0.22930044 -3.83358369 0.00240699 0 0 Z " fill="#000000" transform="translate(90.94241333007813,170.49663543701172)"/>
<path d="M0 0 C7.26 0 14.52 0 22 0 C22.03738281 3.21363281 22.07476562 6.42726563 22.11328125 9.73828125 C22.15947434 12.84601707 22.2107161 15.95363138 22.26245117 19.0612793 C22.29573322 21.22331375 22.32375485 23.38543577 22.34643555 25.54760742 C22.37992108 28.65321218 22.432234 31.75801198 22.48828125 34.86328125 C22.49467117 35.83211746 22.5010611 36.80095367 22.50764465 37.79914856 C22.53733589 39.15020943 22.53733589 39.15020943 22.56762695 40.52856445 C22.57873001 41.32132278 22.58983307 42.11408112 22.60127258 42.93086243 C23.1025212 45.53201879 23.87229442 46.45195823 26 48 C30.29987495 47.91568873 33.40892306 46.89109467 37.125 44.875 C39.56760377 43.59286698 40.70605247 43 43.5 43 C46 44 46 44 47.8359375 45.0078125 C52.63860518 47.63915916 55.45291224 48.58488222 61 47 C62.16425976 44.67148048 62.15457992 43.23719816 62.20532227 40.64208984 C62.22526749 39.74130707 62.24521271 38.84052429 62.26576233 37.91244507 C62.28247482 36.93844757 62.29918732 35.96445007 62.31640625 34.9609375 C62.33718735 33.96494537 62.35796844 32.96895325 62.37937927 31.94277954 C62.44489042 28.75359146 62.50376704 25.56431942 62.5625 22.375 C62.60568373 20.21613707 62.64929797 18.0572827 62.69335938 15.8984375 C62.80057336 10.5990477 62.90233685 5.29957394 63 0 C65.7302389 -0.1083667 68.45614543 -0.18746694 71.1875 -0.25 C71.95642578 -0.28351563 72.72535156 -0.31703125 73.51757812 -0.3515625 C74.26845703 -0.36445313 75.01933594 -0.37734375 75.79296875 -0.390625 C76.4789917 -0.41157227 77.16501465 -0.43251953 77.87182617 -0.45410156 C81.25206354 0.26716051 82.70010741 1.41029208 85 4 C85.73733 7.12547511 85.66259966 10.18799724 85.61523438 13.38671875 C85.62078339 14.3367276 85.6263324 15.28673645 85.63204956 16.26553345 C85.64386311 19.40670159 85.61955276 22.54643269 85.59375 25.6875 C85.5920393 27.8693841 85.59210416 30.05127025 85.59387207 32.2331543 C85.59221785 36.8063523 85.57350053 41.37906069 85.54199219 45.95214844 C85.50231459 51.8169043 85.49794636 57.68101858 85.50545502 63.54588318 C85.50852319 68.05145149 85.49640956 72.55687531 85.47932434 77.06240845 C85.47228831 79.22497654 85.46917054 81.38756101 85.47001648 83.55014038 C85.46822065 86.57148894 85.44685669 89.59206593 85.41992188 92.61328125 C85.42285248 93.50898834 85.42578308 94.40469543 85.42880249 95.32754517 C85.38196535 98.72920138 85.24745035 101.38806251 83.96549988 104.55828857 C80.9034865 106.80430228 77.77900071 106.52340084 74.13208008 106.45410156 C72.91233883 106.45482477 72.91233883 106.45482477 71.66795635 106.45556259 C69.03470332 106.45257598 66.40258174 106.42211331 63.76953125 106.390625 C62.14433335 106.38474413 60.51912789 106.38066325 58.8939209 106.37841797 C52.86666509 106.35744325 46.83957144 106.30159832 40.8125 106.25 C27.344375 106.1675 13.87625 106.085 0 106 C0 71.02 0 36.04 0 0 Z " fill="#000000" transform="translate(305,375)"/>
<path d="M0 0 C0.75087891 0.01289063 1.50175781 0.02578125 2.27539062 0.0390625 C3.04431641 0.07257813 3.81324219 0.10609375 4.60546875 0.140625 C5.78786133 0.16769531 5.78786133 0.16769531 6.99414062 0.1953125 C8.92761136 0.24218452 10.8604516 0.3139209 12.79296875 0.390625 C12.80327621 0.94772659 12.81358368 1.50482819 12.82420349 2.07881165 C12.93226895 7.86996192 13.04686702 13.66095661 13.1652832 19.4519043 C13.20863188 21.6139806 13.250307 23.77609113 13.2902832 25.93823242 C13.34798719 29.04356202 13.41168147 32.14871936 13.4765625 35.25390625 C13.49327499 36.22274246 13.50998749 37.19157867 13.52720642 38.18977356 C13.54715164 39.0904808 13.56709686 39.99118805 13.58764648 40.91918945 C13.61096291 42.10832695 13.61096291 42.10832695 13.63475037 43.32148743 C13.72378101 45.58802274 13.72378101 45.58802274 14.79296875 48.390625 C20.7860294 49.04204464 24.20685983 47.42620677 29.36328125 44.38671875 C32.36384541 43.15658392 33.73720794 43.40631743 36.79296875 44.390625 C38.10747696 45.05561151 39.40106679 45.76389479 40.66796875 46.515625 C44.66881336 48.610944 47.37475785 48.65297097 51.79296875 47.390625 C52.95722851 45.06210548 52.94754867 43.62782316 52.99829102 41.03271484 C53.01823624 40.13193207 53.03818146 39.23114929 53.05873108 38.30307007 C53.07544357 37.32907257 53.09215607 36.35507507 53.109375 35.3515625 C53.1301561 34.35557037 53.15093719 33.35957825 53.17234802 32.33340454 C53.23785917 29.14421646 53.29673579 25.95494442 53.35546875 22.765625 C53.39865248 20.60676207 53.44226672 18.4479077 53.48632812 16.2890625 C53.59435424 10.98966822 53.69341615 5.69021243 53.79296875 0.390625 C61.05296875 0.390625 68.31296875 0.390625 75.79296875 0.390625 C75.79296875 35.370625 75.79296875 70.350625 75.79296875 106.390625 C62.51046875 106.473125 49.22796875 106.555625 35.54296875 106.640625 C31.35061523 106.67704102 27.15826172 106.71345703 22.83886719 106.75097656 C17.71533203 106.76904297 17.71533203 106.76904297 15.315979 106.7723999 C13.64194486 106.7785381 11.9679283 106.79259811 10.29400635 106.81292725 C7.75656463 106.84220021 5.22020241 106.84624949 2.68261719 106.84472656 C1.5659498 106.86631521 1.5659498 106.86631521 0.42672348 106.88834 C-2.75008937 106.86280986 -4.90879116 106.56542892 -7.66679382 104.94891357 C-10.01198172 101.0536262 -9.7730349 97.47242014 -9.74047852 93.00390625 C-9.74909409 92.0538974 -9.75770966 91.10388855 -9.7665863 90.12509155 C-9.78929321 86.98415907 -9.78249896 83.84411532 -9.7734375 80.703125 C-9.77867075 78.52123753 -9.78494613 76.33935232 -9.79222107 74.1574707 C-9.80263386 69.58436437 -9.79805068 65.01156904 -9.78344727 60.43847656 C-9.7662531 54.57353554 -9.78975861 48.70957358 -9.82493687 42.84474182 C-9.84687955 38.33916716 -9.84547701 33.83382793 -9.83717155 29.32821655 C-9.83635042 27.16562831 -9.84324458 25.00302307 -9.85794258 22.84048462 C-9.87533147 19.81882222 -9.86089287 16.79893419 -9.83813477 13.77734375 C-9.84982697 12.88163666 -9.86151917 11.98592957 -9.87356567 11.06307983 C-9.78105434 5.0367006 -9.78105434 5.0367006 -6.93052673 1.82836914 C-4.28300993 0.43073445 -2.93933901 -0.08975081 0 0 Z " fill="#000000" transform="translate(131.20703125,374.609375)"/>
<path d="M0 0 C0.79921875 0.01611328 1.5984375 0.03222656 2.421875 0.04882812 C3.246875 0.09072266 4.071875 0.13261719 4.921875 0.17578125 C5.76234375 0.19833984 6.6028125 0.22089844 7.46875 0.24414062 C9.53722464 0.30290411 11.60477988 0.3925824 13.671875 0.48828125 C13.6812207 1.80022461 13.69056641 3.11216797 13.70019531 4.46386719 C13.74007161 9.33205096 13.80582413 14.1996012 13.87939453 19.06738281 C13.90761779 21.17407085 13.92882556 23.28086505 13.94287109 25.38769531 C13.96428161 28.41656905 14.0109226 31.44416456 14.0625 34.47265625 C14.06372864 35.4144574 14.06495728 36.35625854 14.06622314 37.32659912 C14.14705886 42.56654881 14.14705886 42.56654881 16.53808594 47.11425781 C18.63424063 48.73642256 18.63424063 48.73642256 21.421875 48.48828125 C24.1600291 47.6457723 26.24004041 46.70674583 28.734375 45.36328125 C32.36119982 43.48828125 32.36119982 43.48828125 35.109375 43.48828125 C37.671875 44.48828125 37.671875 44.48828125 39.765625 45.49609375 C45.95101071 48.47005465 45.95101071 48.47005465 52.671875 47.48828125 C54.24261032 45.91754593 53.83556807 44.33465907 53.87719727 42.15209961 C53.89714249 41.23122055 53.91708771 40.31034149 53.93763733 39.36155701 C53.95434982 38.36052444 53.97106232 37.35949188 53.98828125 36.328125 C54.00906235 35.30852188 54.02984344 34.28891876 54.05125427 33.23841858 C54.11686352 29.96761077 54.17568734 26.69671988 54.234375 23.42578125 C54.27754942 21.21418397 54.32116334 19.00259522 54.36523438 16.79101562 C54.47338703 11.35685488 54.57237573 5.92263501 54.671875 0.48828125 C62.261875 0.48828125 69.851875 0.48828125 77.671875 0.48828125 C77.671875 29.85828125 77.671875 59.22828125 77.671875 89.48828125 C49.291875 89.48828125 20.911875 89.48828125 -8.328125 89.48828125 C-8.410625 75.73140625 -8.493125 61.97453125 -8.578125 47.80078125 C-8.61454102 43.46091064 -8.65095703 39.12104004 -8.68847656 34.6496582 C-8.70654297 29.34020996 -8.70654297 29.34020996 -8.7098999 26.85270691 C-8.71603253 25.1195515 -8.73008101 23.38641291 -8.75042725 21.65336609 C-8.7797443 19.02422551 -8.78374797 16.39612546 -8.78222656 13.7668457 C-8.796619 12.9978938 -8.81101143 12.2289419 -8.82584 11.43668842 C-8.79789076 7.82409684 -8.41629564 5.63809649 -6.57025146 2.50138855 C-4.08755946 0.27228798 -3.26440244 -0.1165858 0 0 Z " fill="#000000" transform="translate(172.328125,271.51171875)"/>
<path d="M0 0 C4.95 0 9.9 0 15 0 C15.01458252 1.27641357 15.02916504 2.55282715 15.04418945 3.86791992 C15.1022354 8.61120379 15.17946828 13.35401607 15.26245117 18.09692383 C15.29567083 20.14827816 15.32371197 22.19972325 15.34643555 24.2512207 C15.3800357 27.20302949 15.43235476 30.15400886 15.48828125 33.10546875 C15.49467117 34.02023483 15.5010611 34.93500092 15.50764465 35.87748718 C15.61776903 40.66494187 15.76398812 44.18268025 19 48 C23.44772617 49.08481126 26.17566217 47.46832176 30 45.375 C34.59826541 42.93819468 34.59826541 42.93819468 38.25 43.5 C39.1575 43.995 40.065 44.49 41 45 C45.2091365 47.27994894 48.15273062 48.86173678 53 48 C56.83970333 43.53184679 56.47268566 38.69335177 56.51171875 33.10546875 C56.52966995 32.15811356 56.54762115 31.21075836 56.56611633 30.23469543 C56.62015087 27.21900843 56.65409327 24.2034791 56.6875 21.1875 C56.7206791 19.13864997 56.75516931 17.08982072 56.79101562 15.04101562 C56.87587356 10.02745762 56.94271765 5.01394583 57 0 C61.95 0 66.9 0 72 0 C72 34.98 72 69.96 72 106 C48.24 106 24.48 106 0 106 C0 71.02 0 36.04 0 0 Z " fill="#000000" transform="translate(220,375)"/>
<path d="M0 0 C7.26 0 14.52 0 22 0 C22.03738281 3.21363281 22.07476562 6.42726563 22.11328125 9.73828125 C22.15947434 12.84601707 22.2107161 15.95363138 22.26245117 19.0612793 C22.29573322 21.22331375 22.32375485 23.38543577 22.34643555 25.54760742 C22.37992108 28.65321218 22.432234 31.75801198 22.48828125 34.86328125 C22.49467117 35.83211746 22.5010611 36.80095367 22.50764465 37.79914856 C22.53733589 39.15020943 22.53733589 39.15020943 22.56762695 40.52856445 C22.57873001 41.32132278 22.58983307 42.11408112 22.60127258 42.93086243 C23.1025212 45.53201879 23.87229442 46.45195823 26 48 C30.29987495 47.91568873 33.40892306 46.89109467 37.125 44.875 C39.56760377 43.59286698 40.70605247 43 43.5 43 C45.76811553 43.90724621 47.79250479 44.96532395 49.9375 46.125 C52.86532144 47.64702438 53.9493032 48.00093883 57.375 47.9375 C60.30822236 47.18442813 60.30822236 47.18442813 62 44 C62.3257721 41.92263083 62.3257721 41.92263083 62.31884766 39.62036133 C62.33871735 38.73967484 62.35858704 37.85898834 62.37905884 36.95161438 C62.39061005 36.00465195 62.40216125 35.05768951 62.4140625 34.08203125 C62.43342865 33.10965012 62.4527948 32.13726898 62.4727478 31.13542175 C62.5325555 28.02787056 62.5789339 24.92028235 62.625 21.8125 C62.66317867 19.706364 62.70223033 17.60024363 62.7421875 15.49414062 C62.83825811 10.32955395 62.92228491 5.16489418 63 0 C65.91821463 -0.13510253 68.83017652 -0.2341305 71.75 -0.3125 C72.9875 -0.3753418 72.9875 -0.3753418 74.25 -0.43945312 C75.04921875 -0.45556641 75.8484375 -0.47167969 76.671875 -0.48828125 C77.4050293 -0.51446533 78.13818359 -0.54064941 78.89355469 -0.56762695 C82.280184 0.34497309 83.24803822 2.02315226 85 5 C85.36720757 7.89345444 85.50810528 10.39328003 85.45410156 13.27856445 C85.4545837 14.11179072 85.45506584 14.94501699 85.45556259 15.80349255 C85.45258595 18.49052906 85.42216888 21.1764443 85.390625 23.86328125 C85.38474104 25.52615831 85.38066207 27.18904276 85.37841797 28.85192871 C85.35747905 35.00556573 85.30163388 41.15904398 85.25 47.3125 C85.1675 61.069375 85.085 74.82625 85 89 C56.95 89 28.9 89 0 89 C0 59.63 0 30.26 0 0 Z " fill="#000000" transform="translate(263,272)"/>
<path d="M0 0 C4.4499945 2.18454275 6.99330685 4.45853654 9 9 C10.46657196 14.65677755 9.79420571 17.89334818 7 23 C3.41727442 27.27615634 0.7412975 28.82872484 -4.8125 29.375 C-9.51815676 29.24331184 -12.20328375 27.75448042 -16 25 C-18.74623647 21.52143381 -19.82985307 18.42382009 -20 14 C-19.07843753 9.27699232 -17.91619991 5.89385357 -14.4375 2.5 C-9.61283787 -0.46902285 -5.61182776 -0.62066298 0 0 Z " fill="#000000" transform="translate(261,94)"/>
<path d="M0 0 C4.95 0 9.9 0 15 0 C15 10.56 15 21.12 15 32 C10.545 31.01 10.545 31.01 6 30 C4.02 30.66 2.04 31.32 0 32 C0 21.44 0 10.88 0 0 Z " fill="#000000" transform="translate(340,375)"/>
<path d="M0 0 C4.95 0 9.9 0 15 0 C15 10.56 15 21.12 15 32 C10.545 31.01 10.545 31.01 6 30 C4.02 30.66 2.04 31.32 0 32 C0 21.44 0 10.88 0 0 Z " fill="#000000" transform="translate(157,375)"/>
<path d="M0 0 C4.95 0 9.9 0 15 0 C15 10.56 15 21.12 15 32 C10.545 31.01 10.545 31.01 6 30 C4.02 30.66 2.04 31.32 0 32 C0 21.44 0 10.88 0 0 Z " fill="#000000" transform="translate(249,375)"/>
<path d="M0 0 C4.95 0 9.9 0 15 0 C15 10.56 15 21.12 15 32 C12.525 31.01 12.525 31.01 10 30 C6.53503292 30.35356807 3.38407721 31.1539807 0 32 C0 21.44 0 10.88 0 0 Z " fill="#000000" transform="translate(199,272)"/>
<path d="M0 0 C4.95 0 9.9 0 15 0 C15 10.56 15 21.12 15 32 C13.02 31.34 11.04 30.68 9 30 C5.76085339 30.31756339 3.0847955 30.97173483 0 32 C0 21.44 0 10.88 0 0 Z " fill="#000000" transform="translate(298,272)"/>
</svg>
